<svg width="200" height="200" viewBox="0 0 200 200" fill="none" xmlns="http://www.w3.org/2000/svg">
<g >
<path d="M159.464 60.2589C150.208 56.6511 142.388 50.0679 137.605 41.3601C129.562 26.7167 113.999 16.7905 96.1121 16.7905C77.5457 16.7905 61.4848 27.4847 53.7383 43.0479C48.9938 52.5796 40.9203 60.0636 31.0469 64.0483C16.4574 69.9366 4.20978 83.3937 0.323064 104.432C-0.103498 106.741 -0.109748 109.114 0.316814 111.423C6.35119 144.068 32.5039 158.467 56.3067 154.649C69.6371 152.511 83.1317 156.957 93.0125 166.158C113.104 184.866 145.311 190.731 176.576 170.677C180.239 168.328 185.153 163.398 187.5 159.734C214.44 117.675 194.484 73.9081 159.464 60.2589V60.2589Z" fill="url(#paint0_linear)"/>
<path opacity="0.1" d="M175.972 39.9183H144.166V25.0632C144.166 21.1819 141.019 18.0347 137.137 18.0347H57.7914C53.9102 18.0347 50.7629 21.1819 50.7629 25.0632V47.8101H17.9621C16.3477 47.8101 15.0391 49.1327 15.0391 50.7647V78.4745C15.0391 80.1062 16.3477 81.4292 17.9621 81.4292H50.7629V96.9948H17.9621C16.3477 96.9948 15.0391 98.3175 15.0391 99.9495V151.239C15.0391 152.871 16.3477 154.194 17.9621 154.194H50.7629V167.421C50.7629 171.303 53.9102 174.45 57.7914 174.45H137.137C141.019 174.45 144.166 171.303 144.166 167.421V132.887H158.534C160.683 132.887 162.425 131.127 162.425 128.955V110.159C162.425 107.987 160.683 106.226 158.534 106.226H144.166V86.0276H175.972C178.136 86.0276 179.89 84.2733 179.89 82.1093V43.8366C179.89 41.6726 178.136 39.9183 175.972 39.9183V39.9183Z" fill="#2626BC"/>
<path d="M144.167 33.2629V175.621C144.167 179.502 141.02 182.65 137.138 182.65H57.7922C53.9109 182.65 50.7637 179.502 50.7637 175.621V33.2629C50.7637 29.3816 53.9109 26.2344 57.7922 26.2344H137.138C141.02 26.2344 144.167 29.3816 144.167 33.2629Z" fill="white"/>
<path d="M144.167 66.7132V33.3003C144.167 29.3976 141.037 26.2339 137.177 26.2339H57.7543C53.8934 26.2339 50.7637 29.3976 50.7637 33.3003V66.7132H144.167Z" fill="#6583FE"/>
<path d="M125.309 35.924L128.432 26.2334H66.5L69.6223 35.924C70.0742 37.3272 71.3684 38.2771 72.8285 38.2771H122.104C123.563 38.2771 124.857 37.3275 125.309 35.924V35.924Z" fill="white"/>
<path d="M122.102 40.2305H72.8271C70.5118 40.2305 68.4763 38.7407 67.7618 36.5235L64.6396 26.8329C64.3087 25.8063 64.8732 24.7059 65.8997 24.3751C66.9267 24.0438 68.0271 24.6086 68.3575 25.6352L71.4798 35.3258C71.6724 35.9231 72.2138 36.3247 72.8271 36.3247H122.102C122.715 36.3247 123.257 35.9231 123.449 35.3254L126.571 25.6352C126.902 24.6086 128.002 24.0442 129.029 24.3751C130.056 24.7059 130.62 25.8063 130.289 26.8329L127.167 36.5235C126.452 38.7407 124.417 40.2305 122.102 40.2305Z" fill="#2626BC"/>
<path d="M137.139 184.602H57.7922C52.8395 184.602 48.8105 180.573 48.8105 175.621V163.412C48.8105 162.334 49.6852 161.459 50.7637 161.459C51.8422 161.459 52.7168 162.334 52.7168 163.412V175.621C52.7168 178.42 54.9938 180.696 57.7922 180.696H137.139C139.938 180.696 142.214 178.419 142.214 175.621V141.687C142.214 140.609 143.089 139.734 144.167 139.734C145.246 139.734 146.12 140.609 146.12 141.687V175.621C146.12 180.573 142.091 184.602 137.139 184.602V184.602Z" fill="#2626BC"/>
<path d="M144.168 115.756C143.089 115.756 142.215 114.881 142.215 113.803V95.0527C142.215 93.9742 143.089 93.0996 144.168 93.0996C145.246 93.0996 146.121 93.9742 146.121 95.0527V113.803C146.121 114.881 145.247 115.756 144.168 115.756Z" fill="#2626BC"/>
<path d="M50.7637 56.7923C49.6852 56.7923 48.8105 55.9177 48.8105 54.8392V33.2634C48.8105 28.3106 52.8395 24.2817 57.7922 24.2817H137.139C142.091 24.2817 146.12 28.3106 146.12 33.2634V47.2673C146.12 48.3458 145.246 49.2204 144.167 49.2204C143.089 49.2204 142.214 48.3458 142.214 47.2673V33.2634C142.214 30.4646 139.937 28.188 137.139 28.188H57.7922C54.9934 28.188 52.7168 30.4649 52.7168 33.2634V54.8395C52.7168 55.9181 51.8422 56.7923 50.7637 56.7923Z" fill="#2626BC"/>
<path d="M50.7637 107.148C49.6852 107.148 48.8105 106.274 48.8105 105.195V90.7559C48.8105 89.6773 49.6852 88.8027 50.7637 88.8027C51.8422 88.8027 52.7168 89.6773 52.7168 90.7559V105.195C52.7168 106.274 51.8422 107.148 50.7637 107.148Z" fill="#2626BC"/>
<path d="M97.4645 112.264C107.127 112.264 114.96 104.346 114.96 94.5787C114.96 84.8115 107.127 76.8936 97.4645 76.8936C87.8018 76.8936 79.9688 84.8115 79.9688 94.5787C79.9688 104.346 87.8018 112.264 97.4645 112.264Z" fill="#6583FE"/>
<path d="M102.291 97.1366C103.635 95.8479 104.479 94.0331 104.479 92.0202C104.479 88.1222 101.332 84.9507 97.4637 84.9507C93.5961 84.9507 90.4492 88.1222 90.4492 92.0202C90.4492 94.0331 91.2926 95.8479 92.6367 97.1366C91.2926 98.4253 90.4492 100.24 90.4492 102.253C90.4492 103.332 91.3238 104.206 92.4023 104.206C93.4809 104.206 94.3555 103.332 94.3555 102.253C94.3555 100.509 95.7496 99.0897 97.4637 99.0897C99.1777 99.0897 100.572 100.509 100.572 102.253C100.572 103.332 101.447 104.206 102.525 104.206C103.604 104.206 104.479 103.332 104.479 102.253C104.479 100.24 103.636 98.4253 102.291 97.1366ZM94.3559 92.0202C94.3559 90.2761 95.75 88.8569 97.4641 88.8569C99.1781 88.8569 100.573 90.2761 100.573 92.0202C100.573 93.7644 99.1781 95.1835 97.4641 95.1835C95.75 95.1835 94.3559 93.7644 94.3559 92.0202Z" fill="#2626BC"/>
<path d="M110.409 127.499H84.5211C83.4211 127.499 82.5293 126.598 82.5293 125.486C82.5293 124.374 83.4207 123.473 84.5211 123.473H110.409C111.509 123.473 112.401 124.374 112.401 125.486C112.401 126.598 111.509 127.499 110.409 127.499Z" fill="#2626BC"/>
<path d="M103.411 134.966H91.5191C90.4191 134.966 89.5273 134.064 89.5273 132.953C89.5273 131.841 90.4187 130.939 91.5191 130.939H103.411C104.511 130.939 105.402 131.841 105.402 132.953C105.402 134.064 104.511 134.966 103.411 134.966Z" fill="#2626BC"/>
<path d="M104.039 159.603C105.239 159.603 106.212 158.62 106.212 157.406C106.212 156.193 105.239 155.209 104.039 155.209C102.838 155.209 101.865 156.193 101.865 157.406C101.865 158.62 102.838 159.603 104.039 159.603Z" fill="#2626BC"/>
<path d="M97.4645 155.209C98.6648 155.209 99.6379 156.193 99.6379 157.406C99.6379 158.62 98.6648 159.603 97.4645 159.603C96.2641 159.603 95.291 158.62 95.291 157.406C95.291 156.193 96.2641 155.209 97.4645 155.209Z" fill="#2626BC"/>
<path d="M90.8902 159.603C92.0906 159.603 93.0637 158.62 93.0637 157.406C93.0637 156.193 92.0906 155.209 90.8902 155.209C89.6899 155.209 88.7168 156.193 88.7168 157.406C88.7168 158.62 89.6899 159.603 90.8902 159.603Z" fill="#2626BC"/>
<path d="M158.536 141.087H136.717C134.568 141.087 132.826 139.327 132.826 137.154V118.359C132.826 116.187 134.568 114.426 136.717 114.426H158.536C160.684 114.426 162.426 116.187 162.426 118.359V137.154C162.426 139.326 160.684 141.087 158.536 141.087Z" fill="white"/>
<path d="M158.536 143.04H136.717C133.495 143.04 130.873 140.4 130.873 137.154V118.359C130.873 115.114 133.495 112.474 136.717 112.474H158.536C161.758 112.474 164.379 115.114 164.379 118.359V137.154C164.379 140.4 161.758 143.04 158.536 143.04ZM136.717 116.379C135.648 116.379 134.779 117.267 134.779 118.359V137.154C134.779 138.245 135.648 139.134 136.717 139.134H158.536C159.604 139.134 160.473 138.246 160.473 137.154V118.359C160.473 117.268 159.604 116.38 158.536 116.38L136.717 116.379Z" fill="#2626BC"/>
<path d="M144.979 134.457C144.655 134.457 144.327 134.375 144.025 134.202C143.089 133.668 142.759 132.469 143.287 131.523L148.575 122.057C149.103 121.111 150.29 120.778 151.225 121.312C152.161 121.846 152.491 123.045 151.962 123.991L146.675 133.457C146.317 134.097 145.658 134.457 144.979 134.457Z" fill="#2626BC"/>
<path d="M60.0742 89.6294H17.9621C16.3477 89.6294 15.0391 88.3063 15.0391 86.6747V58.9649C15.0391 57.3329 16.3477 56.0103 17.9621 56.0103H60.0742C61.6887 56.0103 62.9973 57.3333 62.9973 58.9649V86.6747C62.9973 88.3067 61.6887 89.6294 60.0742 89.6294Z" fill="white"/>
<path d="M60.0746 91.5825H17.9621C15.2734 91.5825 13.0859 89.381 13.0859 86.6747V58.9649C13.0859 56.2587 15.2734 54.0571 17.9621 54.0571H60.0746C62.7633 54.0571 64.9508 56.2587 64.9508 58.9649V86.6747C64.9504 89.381 62.7633 91.5825 60.0746 91.5825ZM17.9621 57.9634C17.4273 57.9634 16.9922 58.4126 16.9922 58.9649V86.6747C16.9922 87.227 17.4273 87.6763 17.9621 87.6763H60.0746C60.6094 87.6763 61.0445 87.227 61.0445 86.6747V58.9649C61.0445 58.4126 60.6094 57.9634 60.0746 57.9634H17.9621Z" fill="#2626BC"/>
<path d="M29.9329 79.5119C29.4356 79.5119 28.938 79.3201 28.5591 78.9365L23.8817 74.2084C23.1228 73.4412 23.1228 72.1975 23.8817 71.4307L28.5591 66.7025C29.3173 65.9357 30.5485 65.9357 31.3067 66.7025C32.0657 67.4697 32.0657 68.7135 31.3067 69.4803L28.0036 72.8193L31.3067 76.1584C32.0657 76.9256 32.0657 78.1693 31.3067 78.9361C30.9278 79.3201 30.4302 79.5119 29.9329 79.5119V79.5119Z" fill="#2626BC"/>
<path d="M48.1052 66.1274C48.6024 66.1274 49.1001 66.3192 49.479 66.7028L54.1563 71.431C54.9153 72.1981 54.9153 73.4419 54.1563 74.2087L49.479 78.9368C48.7208 79.7036 47.4896 79.7036 46.7313 78.9368C45.9724 78.1696 45.9724 76.9259 46.7313 76.1591L50.0345 72.82L46.7313 69.481C45.9724 68.7138 45.9724 67.47 46.7313 66.7032C47.1106 66.3192 47.6083 66.1274 48.1052 66.1274V66.1274Z" fill="#2626BC"/>
<path d="M36.3753 79.5124C36.0515 79.5124 35.7238 79.4304 35.4218 79.2581C34.4871 78.7245 34.1574 77.5265 34.6851 76.5819L39.9671 67.1261C40.4945 66.1815 41.6804 65.8483 42.6144 66.3815C43.5492 66.9151 43.8789 68.1132 43.3511 69.0577L38.0691 78.5136C37.7121 79.1526 37.0535 79.5124 36.3753 79.5124V79.5124Z" fill="#2626BC"/>
<path d="M60.0742 162.395H17.9621C16.3477 162.395 15.0391 161.071 15.0391 159.44V108.15C15.0391 106.518 16.3477 105.195 17.9621 105.195H60.0742C61.6887 105.195 62.9973 106.518 62.9973 108.15V159.44C62.9973 161.071 61.6887 162.395 60.0742 162.395V162.395Z" fill="white"/>
<path d="M60.0746 164.348H17.9621C15.2734 164.348 13.0859 162.146 13.0859 159.44V108.15C13.0859 105.444 15.2734 103.242 17.9621 103.242H40.0555C41.134 103.242 42.0086 104.117 42.0086 105.195C42.0086 106.274 41.134 107.148 40.0555 107.148H17.9621C17.4273 107.148 16.9922 107.598 16.9922 108.15V159.44C16.9922 159.992 17.4273 160.441 17.9621 160.441H60.0746C60.6094 160.441 61.0445 159.992 61.0445 159.44V108.15C61.0445 107.598 60.6094 107.148 60.0746 107.148H50.7629C49.6844 107.148 48.8098 106.274 48.8098 105.195C48.8098 104.117 49.6844 103.242 50.7629 103.242H60.0746C62.7633 103.242 64.9508 105.444 64.9508 108.15V159.44C64.9504 162.146 62.7633 164.348 60.0746 164.348V164.348Z" fill="#2626BC"/>
<path d="M175.973 94.2275H128.457C126.293 94.2275 124.539 92.4732 124.539 90.3092V52.0365C124.539 49.8725 126.293 48.1182 128.457 48.1182H175.973C178.137 48.1182 179.891 49.8725 179.891 52.0365V90.3092C179.891 92.4732 178.137 94.2275 175.973 94.2275Z" fill="white"/>
<path d="M175.994 48.1182H162.713V94.2275H175.994C178.146 94.2275 179.891 92.4639 179.891 90.2881V52.0576C179.891 49.8818 178.146 48.1182 175.994 48.1182V48.1182Z" fill="white"/>
<path d="M179.891 60.9873V52.0576C179.891 49.8818 178.146 48.1182 175.994 48.1182H128.436C126.284 48.1182 124.539 49.8818 124.539 52.0576V60.9873H179.891Z" fill="white"/>
<path d="M175.994 96.1807H128.436C125.211 96.1807 122.586 93.5373 122.586 90.2881V52.0576C122.586 48.8084 125.211 46.165 128.436 46.165H175.994C179.22 46.165 181.845 48.8084 181.845 52.0576V60.9869C181.845 62.0654 180.97 62.94 179.891 62.94C178.813 62.94 177.938 62.0654 177.938 60.9869V52.0576C177.938 50.9623 177.066 50.0713 175.994 50.0713H128.436C127.364 50.0713 126.492 50.9623 126.492 52.0576V90.2881C126.492 91.3834 127.364 92.2744 128.436 92.2744H175.994C177.066 92.2744 177.938 91.3834 177.938 90.2881V71.8107C177.938 70.7322 178.813 69.8576 179.891 69.8576C180.97 69.8576 181.845 70.7322 181.845 71.8107V90.2881C181.845 93.5373 179.22 96.1807 175.994 96.1807Z" fill="#2626BC"/>
<path d="M179.891 62.9404H124.539C123.461 62.9404 122.586 62.0658 122.586 60.9873C122.586 59.9088 123.461 59.0342 124.539 59.0342H179.891C180.97 59.0342 181.845 59.9088 181.845 60.9873C181.845 62.0658 180.97 62.9404 179.891 62.9404Z" fill="#2626BC"/>
<path d="M154.882 85.0296H135.554C134.477 85.0296 133.605 84.1479 133.605 83.0604C133.605 81.9729 134.478 81.0913 135.554 81.0913H154.882C155.959 81.0913 156.83 81.9729 156.83 83.0604C156.83 84.1479 155.958 85.0296 154.882 85.0296Z" fill="#2626BC"/>
<path d="M144.36 76.8533H135.554C134.477 76.8533 133.605 75.9717 133.605 74.8842C133.605 73.7967 134.478 72.915 135.554 72.915H144.36C145.436 72.915 146.308 73.7967 146.308 74.8842C146.308 75.9717 145.436 76.8533 144.36 76.8533Z" fill="#2626BC"/>
<path d="M50.4082 134.698H27.6305C26.5551 134.698 25.6836 133.817 25.6836 132.73C25.6836 131.643 26.5551 130.762 27.6305 130.762H50.4082C51.4836 130.762 52.3551 131.643 52.3551 132.73C52.3551 133.817 51.4836 134.698 50.4082 134.698Z" fill="#2626BC"/>
<path d="M45.743 124.172H32.2965C31.2211 124.172 30.3496 123.291 30.3496 122.204C30.3496 121.117 31.2211 120.236 32.2965 120.236H45.743C46.8184 120.236 47.6898 121.117 47.6898 122.204C47.6898 123.291 46.8184 124.172 45.743 124.172Z" fill="#2626BC"/>
<path d="M50.4082 141.687H27.6305C26.5551 141.687 25.6836 140.806 25.6836 139.719C25.6836 138.633 26.5551 137.751 27.6305 137.751H50.4082C51.4836 137.751 52.3551 138.633 52.3551 139.719C52.3551 140.807 51.4836 141.687 50.4082 141.687Z" fill="#2626BC"/>
<path d="M50.4082 148.677H27.6305C26.5551 148.677 25.6836 147.796 25.6836 146.709C25.6836 145.622 26.5551 144.741 27.6305 144.741H50.4082C51.4836 144.741 52.3551 145.622 52.3551 146.709C52.3551 147.796 51.4836 148.677 50.4082 148.677Z" fill="#2626BC"/>
<path d="M180.675 151.027C180.153 151.027 179.653 150.818 179.286 150.447L175 146.115C174.247 145.354 174.247 144.129 175 143.368L179.286 139.035C179.653 138.665 180.153 138.456 180.675 138.456C181.197 138.456 181.696 138.665 182.063 139.035L186.349 143.368C187.102 144.129 187.102 145.354 186.349 146.115L182.063 150.447C181.696 150.818 181.196 151.027 180.675 151.027ZM179.136 144.741L180.674 146.296L182.213 144.741L180.674 143.186L179.136 144.741Z" fill="#6583FE"/>
<path d="M161.003 162.043C160.481 162.043 159.981 161.835 159.614 161.464L155.328 157.132C154.575 156.371 154.575 155.145 155.328 154.384L159.614 150.052C159.981 149.681 160.481 149.473 161.003 149.473C161.524 149.473 162.024 149.681 162.391 150.052L166.677 154.384C167.43 155.145 167.43 156.371 166.677 157.132L162.391 161.464C162.024 161.835 161.524 162.043 161.003 162.043ZM159.464 155.758L161.003 157.313L162.541 155.758L161.003 154.203L159.464 155.758Z" fill="#6583FE"/>
<path d="M34.8824 47.9029C33.8039 47.9029 32.9293 47.0283 32.9293 45.9498C32.9293 44.6428 31.8871 43.5799 30.6055 43.5799C29.527 43.5799 28.6523 42.7053 28.6523 41.6268C28.6523 40.5482 29.527 39.6736 30.6055 39.6736C31.8867 39.6736 32.9293 38.6104 32.9293 37.3037C32.9293 36.2252 33.8039 35.3506 34.8824 35.3506C35.9609 35.3506 36.8355 36.2252 36.8355 37.3037C36.8355 38.6107 37.8777 39.6736 39.1594 39.6736C40.2379 39.6736 41.1125 40.5482 41.1125 41.6268C41.1125 42.7053 40.2379 43.5799 39.1594 43.5799C37.8781 43.5799 36.8355 44.6432 36.8355 45.9498C36.8355 47.0283 35.9609 47.9029 34.8824 47.9029Z" fill="#6583FE"/>
<path d="M42.025 27.9498C40.9465 27.9498 40.0719 27.0752 40.0719 25.9967C40.0719 24.6896 39.0297 23.6268 37.748 23.6268C36.6695 23.6268 35.7949 22.7521 35.7949 21.6736C35.7949 20.5951 36.6695 19.7205 37.748 19.7205C39.0293 19.7205 40.0719 18.6572 40.0719 17.3506C40.0719 16.2721 40.9465 15.3975 42.025 15.3975C43.1035 15.3975 43.9781 16.2721 43.9781 17.3506C43.9781 18.6576 45.0203 19.7205 46.302 19.7205C47.3805 19.7205 48.2551 20.5951 48.2551 21.6736C48.2551 22.7521 47.3805 23.6268 46.302 23.6268C45.0207 23.6268 43.9781 24.69 43.9781 25.9967C43.9781 27.0756 43.1035 27.9498 42.025 27.9498Z" fill="#6583FE"/>
</g>
<defs>
<linearGradient id="paint0_linear" x1="14.2317" y1="57.5687" x2="202.889" y2="149.782" gradientUnits="userSpaceOnUse">
<stop stop-color="#D2DEFF" stop-opacity="0"/>
<stop offset="1" stop-color="#B7C5FF"/>
</linearGradient>
<clipPath id="clip0">
<rect width="200" height="200" fill="white"/>
</clipPath>
</defs>
</svg>
