<svg width="200" height="200" viewBox="0 0 200 200" fill="none" xmlns="http://www.w3.org/2000/svg">
<g clip-path="url(#clip0)">
<path d="M121.124 34.9034C112.752 14.3296 92.502 -0.144613 68.8868 0.00109012C38.7603 0.186637 13.9899 24.487 13.2591 54.605C12.8985 69.4644 18.3286 83.0507 27.4521 93.2702C34.7251 101.417 38.3751 112.147 38.0071 123.062C37.9583 124.513 37.9509 125.975 37.9868 127.445C38.9493 167.055 72.7864 200.024 112.408 200C153.475 199.975 186.759 166.676 186.759 125.603C186.759 95.4956 168.875 69.5683 143.151 57.8593C133.125 53.2956 125.275 45.1066 121.124 34.9034V34.9034Z" fill="url(#paint0_linear)"/>
<path opacity="0.1" d="M183.008 51.9669C183.008 34.8001 169.091 20.8833 151.924 20.8833C140.182 20.8833 129.963 27.3966 124.675 37.006H22.8488C19.616 37.006 16.9922 39.6298 16.9922 42.8626V142.132C16.9922 145.365 19.616 147.988 22.8488 147.988H167.311C170.544 147.988 173.168 145.365 173.168 142.132V74.6478C179.221 68.9763 183.008 60.9157 183.008 51.9669Z" fill="#2626BC"/>
<path d="M117.221 184.575H72.9375L81.7934 149.473H108.366L117.221 184.575Z" fill="white"/>
<path d="M173.168 51.0627V150.332C173.168 153.565 170.545 156.188 167.312 156.188H22.8488C19.616 156.188 16.9922 153.565 16.9922 150.332V51.0627C16.9922 47.8299 19.616 45.2061 22.8488 45.2061H167.311C170.545 45.2061 173.168 47.8299 173.168 51.0627V51.0627Z" fill="white"/>
<path d="M54.2516 100.697H30.2672C29.6203 100.697 29.0957 100.173 29.0957 99.5255V64.0142H55.4227V99.5255C55.4227 100.172 54.8984 100.697 54.2516 100.697V100.697Z" fill="#6583FE"/>
<path d="M162.163 64.0142V99.5235C162.163 100.172 161.636 100.695 160.991 100.695H66.7203C66.0723 100.695 65.5488 100.172 65.5488 99.5235V64.0142H162.163Z" fill="#6583FE"/>
<path d="M48.2074 127.602H30.2672C29.6203 127.602 29.0957 127.077 29.0957 126.431V108.49C29.0957 107.843 29.6203 107.319 30.2672 107.319H48.2074C48.8543 107.319 49.3789 107.843 49.3789 108.49V126.431C49.3785 127.077 48.8543 127.602 48.2074 127.602Z" fill="#6583FE"/>
<path d="M77.5394 127.602H59.5992C58.9523 127.602 58.4277 127.077 58.4277 126.431V108.49C58.4277 107.843 58.952 107.319 59.5992 107.319H77.5394C78.1863 107.319 78.7109 107.843 78.7109 108.49V126.431C78.7109 127.077 78.1863 127.602 77.5394 127.602Z" fill="#6583FE"/>
<path d="M119.67 127.602H88.9293C88.2824 127.602 87.7578 127.077 87.7578 126.431V108.49C87.7578 107.843 88.2824 107.319 88.9293 107.319H119.67C120.317 107.319 120.841 107.843 120.841 108.49V126.431C120.841 127.077 120.317 127.602 119.67 127.602Z" fill="#6583FE"/>
<path d="M160.99 127.602H130.25C129.603 127.602 129.078 127.077 129.078 126.431V108.49C129.078 107.843 129.603 107.319 130.25 107.319H160.99C161.637 107.319 162.162 107.843 162.162 108.49V126.431C162.162 127.077 161.637 127.602 160.99 127.602V127.602Z" fill="#6583FE"/>
<path d="M173.168 64.0143V51.0627C173.168 47.8283 170.546 45.2061 167.312 45.2061H22.8488C19.6145 45.2061 16.9922 47.8283 16.9922 51.0627V64.0143H173.168Z" fill="white"/>
<path d="M16.9922 136.514V150.331C16.9922 153.566 19.6145 156.188 22.8488 156.188H167.311C170.546 156.188 173.168 153.566 173.168 150.331V136.514H16.9922Z" fill="white"/>
<path d="M173.878 82.1524C186.015 70.0153 186.015 50.3372 173.878 38.2002C161.74 26.0631 142.062 26.0631 129.925 38.2002C117.788 50.3372 117.788 70.0153 129.925 82.1524C142.062 94.2894 161.74 94.2894 173.878 82.1524Z" fill="white"/>
<path d="M29.9082 54.5825V54.6396C29.9082 55.7185 30.7828 56.5927 31.8613 56.5927C32.9398 56.5927 33.8145 55.7185 33.8145 54.6396V54.5825C33.8145 53.5036 32.9398 52.6294 31.8613 52.6294C30.7828 52.6294 29.9082 53.504 29.9082 54.5825Z" fill="#2626BC"/>
<path d="M37.4531 54.5825V54.6396C37.4531 55.7185 38.3277 56.5927 39.4062 56.5927C40.4848 56.5927 41.3594 55.7185 41.3594 54.6396V54.5825C41.3594 53.5036 40.4848 52.6294 39.4062 52.6294C38.3277 52.6294 37.4531 53.504 37.4531 54.5825Z" fill="#2626BC"/>
<path d="M44.998 54.5825V54.6396C44.998 55.7185 45.8727 56.5927 46.9512 56.5927C48.0297 56.5927 48.9043 55.7185 48.9043 54.6396V54.5825C48.9043 53.5036 48.0297 52.6294 46.9512 52.6294C45.8727 52.6294 44.998 53.504 44.998 54.5825Z" fill="#2626BC"/>
<path d="M151.925 27.1299C133.708 27.1299 118.888 41.9498 118.888 60.1662C118.888 60.8025 118.91 61.4338 118.946 62.0615H18.9453V51.0635C18.9453 48.9107 20.6965 47.16 22.8488 47.16H113.855C114.933 47.16 115.808 46.2857 115.808 45.2068C115.808 44.1279 114.933 43.2537 113.855 43.2537H22.8488C18.5426 43.2537 15.0391 46.7572 15.0391 51.0635V150.331C15.0391 154.638 18.5426 158.141 22.8488 158.141H77.5926L71.4168 182.62H65.4324C64.3539 182.62 63.4793 183.494 63.4793 184.573C63.4793 185.652 64.3539 186.526 65.4324 186.526H124.728C125.806 186.526 126.681 185.652 126.681 184.573C126.681 183.494 125.806 182.62 124.728 182.62H118.743L112.567 158.141H167.311C171.617 158.141 175.121 154.638 175.121 150.331V82.8732C175.121 81.2256 173.061 80.2818 171.825 81.4389C166.411 86.5061 159.343 89.2967 151.924 89.2967C135.862 89.2967 122.794 76.2287 122.794 60.1662C122.794 44.1037 135.862 31.0361 151.924 31.0361C167.987 31.0361 181.055 44.1037 181.055 60.1662C181.055 65.0432 179.827 69.8678 177.503 74.1182C176.986 75.0646 177.334 76.2514 178.28 76.7689C179.227 77.2861 180.414 76.9381 180.931 75.992C183.568 71.1686 184.961 65.6967 184.961 60.1662C184.961 41.9502 170.141 27.1299 151.925 27.1299V27.1299ZM114.714 182.62H75.4457L81.6215 158.141H108.539L114.714 182.62ZM167.312 154.235H22.8492C20.6969 154.235 18.9457 152.484 18.9457 150.331V138.467H171.215V150.331C171.215 152.483 169.464 154.235 167.312 154.235ZM151.925 93.2033C158.913 93.2033 165.623 91.0139 171.215 86.9811V134.561H18.9457V65.9678H119.409C122.16 81.426 135.688 93.2033 151.925 93.2033V93.2033Z" fill="#2626BC"/>
<path d="M174.374 65.5195C177.301 53.1345 169.634 40.7212 157.249 37.7937C144.864 34.8661 132.451 42.5328 129.524 54.9178C126.596 67.3028 134.263 79.7161 146.648 82.6436C159.033 85.5712 171.446 77.9045 174.374 65.5195Z" fill="#6583FE"/>
<path d="M143.968 70.0736C143.468 70.0736 142.969 69.883 142.587 69.5018C141.825 68.7396 141.825 67.5033 142.587 66.7412L158.498 50.8307C159.261 50.0682 160.496 50.0682 161.259 50.8307C162.021 51.5928 162.021 52.8291 161.259 53.5912L145.348 69.5018C144.967 69.883 144.468 70.0736 143.968 70.0736Z" fill="#2626BC"/>
<path d="M144.652 58.4835C141.57 58.4835 139.062 55.9761 139.062 52.8937C139.062 49.8116 141.57 47.3042 144.652 47.3042C147.734 47.3042 150.241 49.8116 150.241 52.8937C150.241 55.9761 147.734 58.4835 144.652 58.4835ZM144.652 51.2089C143.723 51.2089 142.967 51.9647 142.967 52.8937C142.967 53.8226 143.723 54.5788 144.652 54.5788C145.581 54.5788 146.337 53.8226 146.337 52.8937C146.337 51.9647 145.581 51.2089 144.652 51.2089Z" fill="#2626BC"/>
<path d="M159.195 73.0279C156.113 73.0279 153.605 70.5205 153.605 67.4381C153.605 64.3561 156.113 61.8486 159.195 61.8486C162.277 61.8486 164.784 64.3561 164.784 67.4381C164.784 70.5209 162.277 73.0279 159.195 73.0279ZM159.195 65.7537C158.266 65.7537 157.51 66.5096 157.51 67.4385C157.51 68.3674 158.266 69.1236 159.195 69.1236C160.124 69.1236 160.88 68.3674 160.88 67.4385C160.88 66.5096 160.124 65.7537 159.195 65.7537Z" fill="#2626BC"/>
<path d="M87.1695 95.2263C88.371 95.2263 89.3449 94.2418 89.3449 93.0274C89.3449 91.8131 88.371 90.8286 87.1695 90.8286C85.9681 90.8286 84.9941 91.8131 84.9941 93.0274C84.9941 94.2418 85.9681 95.2263 87.1695 95.2263Z" fill="#2626BC"/>
<path d="M80.5875 95.2263C81.7889 95.2263 82.7629 94.2418 82.7629 93.0274C82.7629 91.8131 81.7889 90.8286 80.5875 90.8286C79.3861 90.8286 78.4121 91.8131 78.4121 93.0274C78.4121 94.2418 79.3861 95.2263 80.5875 95.2263Z" fill="#2626BC"/>
<path d="M74.0074 95.2263C75.2089 95.2263 76.1828 94.2418 76.1828 93.0274C76.1828 91.8131 75.2089 90.8286 74.0074 90.8286C72.806 90.8286 71.832 91.8131 71.832 93.0274C71.832 94.2418 72.806 95.2263 74.0074 95.2263Z" fill="#2626BC"/>
<path d="M102.169 115.494H96.3203C95.2156 115.494 94.3203 114.598 94.3203 113.494C94.3203 112.39 95.2156 111.494 96.3203 111.494H102.169C103.274 111.494 104.169 112.39 104.169 113.494C104.169 114.598 103.274 115.494 102.169 115.494Z" fill="#2626BC"/>
<path d="M112.277 115.494H109.709C108.604 115.494 107.709 114.598 107.709 113.494C107.709 112.39 108.604 111.494 109.709 111.494H112.277C113.382 111.494 114.277 112.39 114.277 113.494C114.277 114.598 113.382 115.494 112.277 115.494Z" fill="#2626BC"/>
<path d="M112.276 123.428H96.3203C95.2156 123.428 94.3203 122.532 94.3203 121.428C94.3203 120.323 95.2156 119.428 96.3203 119.428H112.276C113.381 119.428 114.276 120.323 114.276 121.428C114.276 122.532 113.381 123.428 112.276 123.428Z" fill="#2626BC"/>
<path d="M143.489 115.494H137.641C136.536 115.494 135.641 114.598 135.641 113.494C135.641 112.39 136.536 111.494 137.641 111.494H143.489C144.594 111.494 145.489 112.39 145.489 113.494C145.489 114.598 144.594 115.494 143.489 115.494Z" fill="#2626BC"/>
<path d="M153.597 115.494H151.029C149.925 115.494 149.029 114.598 149.029 113.494C149.029 112.39 149.925 111.494 151.029 111.494H153.597C154.702 111.494 155.597 112.39 155.597 113.494C155.597 114.598 154.702 115.494 153.597 115.494Z" fill="#2626BC"/>
<path d="M153.596 123.428H137.641C136.536 123.428 135.641 122.532 135.641 121.428C135.641 120.323 136.536 119.428 137.641 119.428H153.596C154.701 119.428 155.596 120.323 155.596 121.428C155.596 122.532 154.701 123.428 153.596 123.428Z" fill="#2626BC"/>
<path d="M123.325 25.9681C122.807 25.9681 122.31 25.7622 121.943 25.3958L117.648 21.1005C116.885 20.338 116.885 19.1013 117.648 18.3388L121.943 14.0438C122.706 13.281 123.942 13.281 124.705 14.0438L129.001 18.3388C129.367 18.7052 129.573 19.2017 129.573 19.7196C129.573 20.2376 129.367 20.7345 129.001 21.1005L124.705 25.3958C124.34 25.7618 123.843 25.9681 123.325 25.9681V25.9681ZM121.792 19.7192L123.325 21.2524L124.857 19.7192L123.325 18.1864L121.792 19.7192Z" fill="#6583FE"/>
<path d="M133.172 174.322C132.672 174.322 132.173 174.132 131.791 173.75L127.496 169.455C127.129 169.089 126.924 168.592 126.924 168.074C126.924 167.556 127.13 167.06 127.496 166.694L131.791 162.399C132.554 161.636 133.791 161.636 134.553 162.399L138.848 166.694C139.611 167.456 139.611 168.693 138.848 169.455L134.553 173.75C134.172 174.131 133.672 174.322 133.172 174.322V174.322ZM131.639 168.074L133.172 169.607L134.705 168.074L133.172 166.542L131.639 168.074Z" fill="#6583FE"/>
<path d="M150.243 184.027C149.164 184.027 148.289 183.152 148.289 182.074C148.289 180.778 147.235 179.724 145.939 179.724C144.861 179.724 143.986 178.849 143.986 177.77C143.986 176.692 144.861 175.817 145.939 175.817C147.235 175.817 148.289 174.763 148.289 173.467C148.289 172.388 149.164 171.514 150.243 171.514C151.321 171.514 152.196 172.388 152.196 173.467C152.196 174.763 153.25 175.817 154.546 175.817C155.624 175.817 156.499 176.692 156.499 177.77C156.499 178.849 155.624 179.724 154.546 179.724C153.25 179.724 152.196 180.777 152.196 182.074C152.196 183.152 151.321 184.027 150.243 184.027Z" fill="#6583FE"/>
<path d="M70.3402 31.4422C69.2617 31.4422 68.3871 30.568 68.3871 29.4891C68.3871 28.1934 67.3328 27.1391 66.0371 27.1391C64.9586 27.1391 64.084 26.2648 64.084 25.1859C64.084 24.107 64.9586 23.2328 66.0371 23.2328C67.3328 23.2328 68.3871 22.1789 68.3871 20.8828C68.3871 19.8039 69.2617 18.9297 70.3402 18.9297C71.4187 18.9297 72.2934 19.8039 72.2934 20.8828C72.2934 22.1785 73.3477 23.2328 74.6434 23.2328C75.7219 23.2328 76.5965 24.107 76.5965 25.1859C76.5965 26.2648 75.7219 27.1391 74.6434 27.1391C73.3477 27.1391 72.2934 28.193 72.2934 29.4891C72.2934 30.568 71.4187 31.4422 70.3402 31.4422Z" fill="#6583FE"/>
</g>
<defs>
<linearGradient id="paint0_linear" x1="18.1833" y1="13.9085" x2="166.233" y2="189.03" gradientUnits="userSpaceOnUse">
<stop stop-color="#D2DEFF" stop-opacity="0"/>
<stop offset="1" stop-color="#B7C5FF"/>
</linearGradient>
<clipPath id="clip0">
<rect width="200" height="200" fill="white"/>
</clipPath>
</defs>
</svg>
