<svg width="200" height="200" viewBox="0 0 200 200" fill="none" xmlns="http://www.w3.org/2000/svg">
<g clip-path="url(#clip0)">
<path d="M159.464 60.2589C150.208 56.6511 142.388 50.0679 137.605 41.3601C129.562 26.7167 113.999 16.7905 96.1121 16.7905C77.5457 16.7905 61.4848 27.4847 53.7383 43.0479C48.9938 52.5796 40.9203 60.0636 31.0469 64.0483C16.4574 69.9366 4.20978 83.3937 0.323064 104.432C-0.103498 106.741 -0.109748 109.114 0.316814 111.423C6.35119 144.068 32.5039 158.467 56.3067 154.649C69.6371 152.511 83.1317 156.957 93.0125 166.158C113.104 184.866 145.311 190.731 176.576 170.677C180.239 168.328 185.153 163.398 187.5 159.734C214.44 117.675 194.484 73.9081 159.464 60.2589V60.2589Z" fill="url(#paint0_linear)"/>
<path opacity="0.1" d="M175.972 39.9183H144.166V25.0632C144.166 21.1819 141.019 18.0347 137.137 18.0347H57.7914C53.9102 18.0347 50.7629 21.1819 50.7629 25.0632V47.8101H17.9621C16.3477 47.8101 15.0391 49.1327 15.0391 50.7647V78.4745C15.0391 80.1062 16.3477 81.4292 17.9621 81.4292H50.7629V96.9948L78.5 106.226C76.8855 106.226 138.961 144.55 78.5 131.5L64.5 148.5C64.5 150.132 64.5 127 60 159L50.7629 154.194V167.421C50.7629 171.303 53.9102 174.45 57.7914 174.45H137.137C141.019 174.45 144.166 171.303 144.166 167.421V132.887H158.534C160.683 132.887 162.425 131.127 162.425 128.955V110.159C162.425 107.987 160.683 106.226 158.534 106.226H144.166V86.0276H175.972C178.136 86.0276 179.89 84.2733 179.89 82.1093V43.8366C179.89 41.6726 178.136 39.9183 175.972 39.9183Z" fill="#2626BC"/>
<path d="M144.167 33.2629V175.621C144.167 179.502 141.02 182.65 137.138 182.65H57.7922C53.9109 182.65 50.7637 179.502 50.7637 175.621V33.2629C50.7637 29.3816 53.9109 26.2344 57.7922 26.2344H137.138C141.02 26.2344 144.167 29.3816 144.167 33.2629Z" fill="white"/>
<path d="M144 59V31.7608C144 28.5791 140.883 26 137.04 26H57.9604C54.1162 26 51 28.5791 51 31.7608V59H144Z" fill="#6583FE"/>
<path d="M125.309 35.924L128.432 26.2334H66.5L69.6223 35.924C70.0742 37.3272 71.3684 38.2771 72.8285 38.2771H122.104C123.563 38.2771 124.857 37.3275 125.309 35.924V35.924Z" fill="white"/>
<path d="M122.102 40.2305H72.8271C70.5118 40.2305 68.4763 38.7407 67.7618 36.5235L64.6396 26.8329C64.3087 25.8063 64.8732 24.7059 65.8997 24.3751C66.9267 24.0438 68.0271 24.6086 68.3575 25.6352L71.4798 35.3258C71.6724 35.9231 72.2138 36.3247 72.8271 36.3247H122.102C122.715 36.3247 123.257 35.9231 123.449 35.3254L126.571 25.6352C126.902 24.6086 128.002 24.0442 129.029 24.3751C130.056 24.7059 130.62 25.8063 130.289 26.8329L127.167 36.5235C126.452 38.7407 124.417 40.2305 122.102 40.2305Z" fill="#2626BC"/>
<path d="M137.139 184.602H57.7922C52.8395 184.602 48.8105 180.573 48.8105 175.621V163.412C48.8105 162.334 49.6852 161.459 50.7637 161.459C51.8422 161.459 52.7168 162.334 52.7168 163.412V175.621C52.7168 178.42 54.9938 180.696 57.7922 180.696H137.139C139.938 180.696 142.214 178.419 142.214 175.621V141.687C142.214 140.609 143.089 139.734 144.167 139.734C145.246 139.734 146.12 140.609 146.12 141.687V175.621C146.12 180.573 142.091 184.602 137.139 184.602V184.602Z" fill="#2626BC"/>
<path d="M144.168 115.756C143.089 115.756 142.215 114.881 142.215 113.803V95.0526C142.215 37.9996 142.002 36 144.168 36C146.5 36 146.121 41.9998 146.121 95.0526V113.803C146.121 114.881 145.247 115.756 144.168 115.756Z" fill="#2626BC"/>
<path d="M50.7637 56.7923C49.6852 56.7923 48.8105 55.9177 48.8105 54.8392V33.2634C48.8105 28.3106 52.8395 24.2817 57.7922 24.2817H137.139C142.091 24.2817 146.12 28.3106 146.12 33.2634V51C146.12 52.0785 145.246 52.5 144.167 52.5C143.089 52.5 142.214 52.5785 142.214 51.5V33.2634C142.214 30.4646 139.937 28.188 137.139 28.188H57.7922C54.9934 28.188 52.7168 30.4649 52.7168 33.2634V54.8396C52.7168 55.9181 51.8422 56.7923 50.7637 56.7923Z" fill="#2626BC"/>
<path d="M50.5 167.5C49.4215 167.5 48.8105 165.579 48.8105 164.5V90.7559C48.8105 89.6773 49.6852 88.8027 50.7637 88.8027C51.8422 88.8027 52.7168 89.6773 52.7168 90.7559V166.5C52.7168 167.579 51.5785 167.5 50.5 167.5Z" fill="#2626BC"/>
<path d="M104.039 168.394C105.239 168.394 106.212 167.41 106.212 166.197C106.212 164.984 105.239 164 104.039 164C102.838 164 101.865 164.984 101.865 166.197C101.865 167.41 102.838 168.394 104.039 168.394Z" fill="#2626BC"/>
<path d="M97.4645 164C98.6648 164 99.6379 164.984 99.6379 166.197C99.6379 167.41 98.6648 168.394 97.4645 168.394C96.2641 168.394 95.291 167.41 95.291 166.197C95.291 164.984 96.2641 164 97.4645 164Z" fill="#2626BC"/>
<path d="M90.8902 168.394C92.0906 168.394 93.0637 167.41 93.0637 166.197C93.0637 164.984 92.0906 164 90.8902 164C89.6899 164 88.7168 164.984 88.7168 166.197C88.7168 167.41 89.6899 168.394 90.8902 168.394Z" fill="#2626BC"/>
<path d="M158.536 141.087H136.717C134.568 141.087 132.826 139.327 132.826 137.154V118.359C132.826 116.187 134.568 114.426 136.717 114.426H158.536C160.684 114.426 162.426 116.187 162.426 118.359V137.154C162.426 139.326 160.684 141.087 158.536 141.087Z" fill="white"/>
<path d="M158.536 143.04H136.717C133.495 143.04 130.873 140.4 130.873 137.154V118.359C130.873 115.114 133.495 112.474 136.717 112.474H158.536C161.758 112.474 164.379 115.114 164.379 118.359V137.154C164.379 140.4 161.758 143.04 158.536 143.04ZM136.717 116.379C135.648 116.379 134.779 117.267 134.779 118.359V137.154C134.779 138.245 135.648 139.134 136.717 139.134H158.536C159.604 139.134 160.473 138.246 160.473 137.154V118.359C160.473 117.268 159.604 116.38 158.536 116.38L136.717 116.379Z" fill="#2626BC"/>
<g clip-path="url(#clip1)">
<path d="M146.5 137C147.858 137 148.994 136.032 149.255 134.75H143.744C144.005 136.032 145.141 137 146.5 137Z" fill="#2626BC"/>
<path d="M152.182 129.872C152.162 129.872 152.144 129.875 152.125 129.875C148.817 129.875 146.125 127.183 146.125 123.875C146.125 122.575 146.545 121.375 147.25 120.39V119.75C147.25 119.335 146.914 119 146.5 119C146.086 119 145.75 119.335 145.75 119.75V120.56C143.21 120.926 141.25 123.111 141.25 125.75V127.841C141.25 129.325 140.6 130.726 139.459 131.691C139.167 131.941 139 132.303 139 132.687C139 133.411 139.589 134 140.312 134H152.687C153.411 134 154 133.411 154 132.687C154 132.303 153.833 131.941 153.534 131.685C152.942 131.185 152.487 130.562 152.182 129.872V129.872Z" fill="#2626BC"/>
<path d="M152.125 119C149.437 119 147.25 121.187 147.25 123.875C147.25 126.563 149.437 128.75 152.125 128.75C154.813 128.75 157 126.563 157 123.875C157 121.187 154.813 119 152.125 119V119ZM152.875 125.563C152.875 125.873 152.623 126.125 152.313 126.125C152.002 126.125 151.75 125.873 151.75 125.563V123.125H151.375C151.064 123.125 150.812 122.873 150.812 122.562C150.812 122.252 151.064 122 151.375 122H152.313C152.623 122 152.875 122.252 152.875 122.562V125.563Z" fill="#2626BC"/>
</g>
<path d="M61.9797 89.6294H25.0241C23.6073 89.6294 22.459 88.3063 22.459 86.6747V58.9649C22.459 57.3329 23.6073 56.0103 25.0241 56.0103H61.9797C63.3964 56.0103 64.5448 57.3333 64.5448 58.9649V86.6747C64.5448 88.3067 63.3964 89.6294 61.9797 89.6294Z" fill="white"/>
<path d="M60.5888 91.5825H26.4176C24.2359 91.5825 22.4609 89.381 22.4609 86.6747V58.9649C22.4609 56.2587 24.2359 54.0571 26.4176 54.0571H60.5888C62.7704 54.0571 64.5454 56.2587 64.5454 58.9649V86.6747C64.5451 89.381 62.7704 91.5825 60.5888 91.5825ZM26.4176 57.9634C25.9837 57.9634 25.6306 58.4126 25.6306 58.9649V86.6747C25.6306 87.227 25.9837 87.6763 26.4176 87.6763H60.5888C61.0227 87.6763 61.3758 87.227 61.3758 86.6747V58.9649C61.3758 58.4126 61.0227 57.9634 60.5888 57.9634H26.4176Z" fill="#2626BC"/>
<g clip-path="url(#clip2)">
<path d="M39.6652 76.0007L39.2682 81.5847C39.8362 81.5847 40.0822 81.3407 40.3772 81.0477L43.0402 78.5027L48.5582 82.5437C49.5702 83.1077 50.2832 82.8107 50.5562 81.6127L54.1782 64.6407L54.1792 64.6397C54.5002 63.1437 53.6382 62.5587 52.6522 62.9257L31.3622 71.0767C29.9092 71.6407 29.9312 72.4507 31.1152 72.8177L36.5582 74.5107L49.2012 66.5997C49.7962 66.2057 50.3372 66.4237 49.8922 66.8177L39.6652 76.0007Z" fill="#2626BC"/>
</g>
<path d="M180.675 151.027C180.153 151.027 179.653 150.818 179.286 150.447L175 146.115C174.247 145.354 174.247 144.129 175 143.368L179.286 139.035C179.653 138.665 180.153 138.456 180.675 138.456C181.197 138.456 181.696 138.665 182.063 139.035L186.349 143.368C187.102 144.129 187.102 145.354 186.349 146.115L182.063 150.447C181.696 150.818 181.196 151.027 180.675 151.027ZM179.136 144.741L180.674 146.296L182.213 144.741L180.674 143.186L179.136 144.741Z" fill="#6583FE"/>
<path d="M161.003 162.043C160.481 162.043 159.981 161.835 159.614 161.464L155.328 157.132C154.575 156.371 154.575 155.145 155.328 154.384L159.614 150.052C159.981 149.681 160.481 149.473 161.003 149.473C161.524 149.473 162.024 149.681 162.391 150.052L166.677 154.384C167.43 155.145 167.43 156.371 166.677 157.132L162.391 161.464C162.024 161.835 161.524 162.043 161.003 162.043ZM159.464 155.758L161.003 157.313L162.541 155.758L161.003 154.203L159.464 155.758Z" fill="#6583FE"/>
<path d="M34.8824 47.9029C33.8039 47.9029 32.9293 47.0283 32.9293 45.9498C32.9293 44.6428 31.8871 43.5799 30.6055 43.5799C29.527 43.5799 28.6523 42.7053 28.6523 41.6268C28.6523 40.5482 29.527 39.6736 30.6055 39.6736C31.8867 39.6736 32.9293 38.6104 32.9293 37.3037C32.9293 36.2252 33.8039 35.3506 34.8824 35.3506C35.9609 35.3506 36.8355 36.2252 36.8355 37.3037C36.8355 38.6107 37.8777 39.6736 39.1594 39.6736C40.2379 39.6736 41.1125 40.5482 41.1125 41.6268C41.1125 42.7053 40.2379 43.5799 39.1594 43.5799C37.8781 43.5799 36.8355 44.6432 36.8355 45.9498C36.8355 47.0283 35.9609 47.9029 34.8824 47.9029Z" fill="#6583FE"/>
<path d="M42.025 27.9498C40.9465 27.9498 40.0719 27.0752 40.0719 25.9967C40.0719 24.6896 39.0297 23.6268 37.748 23.6268C36.6695 23.6268 35.7949 22.7521 35.7949 21.6736C35.7949 20.5951 36.6695 19.7205 37.748 19.7205C39.0293 19.7205 40.0719 18.6572 40.0719 17.3506C40.0719 16.2721 40.9465 15.3975 42.025 15.3975C43.1035 15.3975 43.9781 16.2721 43.9781 17.3506C43.9781 18.6576 45.0203 19.7205 46.302 19.7205C47.3805 19.7205 48.2551 20.5951 48.2551 21.6736C48.2551 22.7521 47.3805 23.6268 46.302 23.6268C45.0207 23.6268 43.9781 24.69 43.9781 25.9967C43.9781 27.0756 43.1035 27.9498 42.025 27.9498Z" fill="#6583FE"/>
<path d="M105.737 101.939C105.737 113.167 97.9529 116.909 88.3518 116.909C78.7507 116.909 70.9668 113.167 70.9668 101.939C70.9668 91.461 78.7507 83.9761 88.3518 83.9761C97.9529 83.9761 105.737 91.461 105.737 101.939Z" fill="#E8EDFC"/>
<path d="M88.351 83.9761C87.888 83.9761 87.436 84.009 86.9785 84.0429C95.9364 84.7207 102.991 91.9669 102.991 101.939C102.991 112.625 95.9364 116.522 86.9785 116.874C87.436 116.893 87.888 116.909 88.351 116.909C97.9521 116.909 105.736 113.167 105.736 101.939C105.736 91.461 97.9521 83.9761 88.351 83.9761Z" fill="#CAD9FC"/>
<path d="M72.7968 87.6353C73.8075 87.6353 74.6268 86.8162 74.6268 85.8057C74.6268 84.7952 73.8075 83.9761 72.7968 83.9761C71.7861 83.9761 70.9668 84.7952 70.9668 85.8057C70.9668 86.8162 71.7861 87.6353 72.7968 87.6353Z" fill="#C6D8FB"/>
<path d="M103.906 87.6353C104.917 87.6353 105.736 86.8162 105.736 85.8057C105.736 84.7952 104.917 83.9761 103.906 83.9761C102.895 83.9761 102.076 84.7952 102.076 85.8057C102.076 86.8162 102.895 87.6353 103.906 87.6353Z" fill="#C6D8FB"/>
<path d="M93.84 94.9536H82.86C78.3119 94.9536 74.625 98.6398 74.625 103.187C74.625 107.734 78.3119 111.42 82.86 111.42H93.84C98.388 111.42 102.075 107.734 102.075 103.187C102.075 98.6398 98.388 94.9536 93.84 94.9536Z" fill="#A4C2F7"/>
<path d="M93.8407 94.9536H91.0957C95.6438 94.9536 99.3307 98.6398 99.3307 103.187C99.3307 107.734 95.6438 111.42 91.0957 111.42H93.8407C98.3888 111.42 102.076 107.734 102.076 103.187C102.076 98.6398 98.3888 94.9536 93.8407 94.9536Z" fill="#7FACFA"/>
<path d="M93.407 133.376H83.2963C80.9652 133.376 79.007 131.623 78.7496 129.307L77.9362 121.988C77.7925 120.695 78.2064 119.402 79.0742 118.433C79.942 117.463 81.1816 116.909 82.4828 116.909H94.2204C95.5217 116.909 96.7613 117.463 97.6291 118.433C98.4969 119.402 98.9107 120.695 98.7671 121.988L97.9536 129.307C97.6963 131.623 95.7381 133.376 93.407 133.376V133.376Z" fill="#E8EDFC"/>
<path d="M94.2186 116.909H91.4736C92.7748 116.909 94.0144 117.463 94.8822 118.433C95.75 119.402 96.1639 120.695 96.0202 121.988L95.2068 129.307C94.9494 131.623 92.9912 133.376 90.6602 133.376H93.4052C95.7362 133.376 97.6944 131.623 97.9518 129.307L98.7652 121.988C98.9089 120.695 98.495 119.402 97.6272 118.433C96.7594 117.463 95.5198 116.909 94.2186 116.909Z" fill="#CAD9FC"/>
<path d="M83.7754 133.376H92.9254V134.291C92.9254 135.806 91.6964 137.035 90.1804 137.035H86.5204C85.0044 137.035 83.7754 135.806 83.7754 134.291V133.376Z" fill="#C6D8FB"/>
<path d="M90.1805 133.376V134.291C90.1805 135.806 88.9516 137.035 87.4355 137.035H90.1805C91.6966 137.035 92.9255 135.806 92.9255 134.291V133.376H90.1805Z" fill="#6583FE"/>
<path d="M85.6055 116.909H91.0955V119.654C91.0955 121.169 89.8665 122.398 88.3505 122.398C86.8344 122.398 85.6055 121.169 85.6055 119.654V116.909Z" fill="#C6D8FB"/>
<path d="M121.291 131.546H104.821C103.305 131.546 102.076 132.775 102.076 134.291C102.076 135.807 103.305 137.035 104.821 137.035H121.291C122.807 137.035 124.036 135.807 124.036 134.291C124.036 132.775 122.807 131.546 121.291 131.546Z" fill="#C6D8FB"/>
<path d="M121.29 131.546H118.545C120.061 131.546 121.29 132.775 121.29 134.291C121.29 135.807 120.061 137.035 118.545 137.035H121.29C122.806 137.035 124.035 135.807 124.035 134.291C124.035 132.775 122.806 131.546 121.29 131.546Z" fill="#6583FE"/>
<path d="M121.291 116.909H104.821C103.305 116.909 102.076 118.138 102.076 119.654V125.142C102.076 126.658 103.305 127.887 104.821 127.887H121.291C122.807 127.887 124.036 126.658 124.036 125.142V119.654C124.036 118.138 122.807 116.909 121.291 116.909Z" fill="#E8EDFC"/>
<path d="M121.29 116.909H118.545C120.061 116.909 121.29 118.138 121.29 119.654V125.142C121.29 126.658 120.061 127.887 118.545 127.887H121.29C122.806 127.887 124.035 126.658 124.035 125.142V119.654C124.035 118.138 122.806 116.909 121.29 116.909Z" fill="#CAD9FC"/>
<path d="M81.0312 104.102C82.0419 104.102 82.8612 103.283 82.8612 102.272C82.8612 101.262 82.0419 100.443 81.0312 100.443C80.0205 100.443 79.2012 101.262 79.2012 102.272C79.2012 103.283 80.0205 104.102 81.0312 104.102Z" fill="#E8EDFC"/>
<path d="M95.6698 104.102C96.6805 104.102 97.4998 103.283 97.4998 102.272C97.4998 101.262 96.6805 100.443 95.6698 100.443C94.6592 100.443 93.8398 101.262 93.8398 102.272C93.8398 103.283 94.6592 104.102 95.6698 104.102Z" fill="#E8EDFC"/>
<path d="M86.9793 116.874C87.4368 116.893 87.8888 116.909 88.3518 116.909C88.8148 116.909 89.2668 116.893 89.7243 116.874C80.7664 116.522 73.7118 112.625 73.7118 101.939C73.7118 91.9669 80.7664 84.7207 89.7243 84.0429C89.2668 84.009 88.8148 83.9761 88.3518 83.9761C78.7507 83.9761 70.9668 91.461 70.9668 101.939C70.9668 112.625 78.0214 116.522 86.9793 116.874Z" fill="white"/>
<path d="M85.2278 116.909H82.4828C81.1816 116.909 79.942 117.463 79.0742 118.433C78.2064 119.402 77.7925 120.695 77.9362 121.988L78.7496 129.307C79.007 131.623 80.9652 133.376 83.2963 133.376H83.7766V134.291C83.7766 135.806 85.0056 137.035 86.5216 137.035H89.2666C87.7506 137.035 86.5216 135.806 86.5216 134.291V133.376H86.0413C83.7102 133.376 81.752 131.623 81.4946 129.307L80.6812 121.988C80.5375 120.695 80.9514 119.402 81.8192 118.433C82.687 117.463 83.9266 116.909 85.2278 116.909V116.909Z" fill="white"/>
<path d="M71.4563 94.4478L73.1554 95.1265C72.3073 97.2975 71.8749 99.6085 71.8808 101.939H70.0508C70.0446 99.3759 70.5214 96.8345 71.4563 94.4478V94.4478Z" fill="white"/>
<path d="M71.32 99.2129C70.8146 99.2154 70.4029 98.8079 70.4004 98.3027C70.3979 97.7974 70.8055 97.3858 71.3108 97.3833H71.32C71.8253 97.3833 72.235 97.7929 72.235 98.2981C72.235 98.8033 71.8253 99.2129 71.32 99.2129V99.2129Z" fill="#2626BC"/>
<path d="M70.051 101.939C70.051 109.532 73.4457 114.499 79.9385 116.628C77.9284 117.668 76.7695 119.841 77.0261 122.09L77.8395 129.408C78.1327 132.019 80.2411 134.052 82.861 134.25V134.291C82.861 136.311 84.4997 137.95 86.521 137.95H90.181C92.2024 137.95 93.841 136.311 93.841 134.291V134.25C96.4609 134.052 98.5694 132.019 98.8625 129.408L99.676 122.09C99.9326 119.841 98.7737 117.668 96.7635 116.628C103.256 114.499 106.651 109.534 106.651 101.939C106.664 99.0208 106.04 96.1347 104.821 93.4827V88.3817C106.081 87.9362 106.838 86.6475 106.611 85.3301C106.385 84.0128 105.243 83.0498 103.906 83.0498C102.569 83.0498 101.427 84.0128 101.201 85.3301C100.974 86.6475 101.731 87.9362 102.991 88.3817V90.3696C99.5819 85.7079 94.1265 82.9845 88.351 83.0612C82.5751 83.0218 77.1307 85.754 73.711 90.408V88.3817C74.9715 87.9362 75.7276 86.6475 75.5015 85.3301C75.2754 84.0128 74.1329 83.0498 72.796 83.0498C71.4591 83.0498 70.3166 84.0128 70.0906 85.3301C69.8645 86.6475 70.6206 87.9362 71.881 88.3817V93.5147C71.7346 93.8239 71.5882 94.1331 71.4565 94.4478C71.3666 94.68 71.3741 94.9387 71.4775 95.1653C71.5808 95.3919 71.7712 95.5672 72.0055 95.6517C72.4679 95.8184 72.9788 95.5852 73.1556 95.1266C75.6046 88.8919 81.6518 84.8184 88.351 84.8908C97.7407 84.8908 104.821 92.2202 104.821 101.939C104.821 111.266 99.2798 115.994 88.351 115.994C77.4223 115.994 71.881 111.266 71.881 101.939C71.881 101.434 71.4714 101.024 70.966 101.024C70.4607 101.024 70.051 101.434 70.051 101.939ZM103.906 84.8908C104.411 84.8908 104.821 85.3004 104.821 85.8056C104.821 86.3108 104.411 86.7204 103.906 86.7204C103.401 86.7204 102.991 86.3108 102.991 85.8056C102.991 85.3004 103.401 84.8908 103.906 84.8908ZM72.796 84.8908C73.3014 84.8908 73.711 85.3004 73.711 85.8056C73.711 86.3108 73.3014 86.7204 72.796 86.7204C72.2907 86.7204 71.881 86.3108 71.881 85.8056C71.881 85.3004 72.2907 84.8908 72.796 84.8908ZM90.181 117.824V119.654C90.181 120.664 89.3617 121.483 88.351 121.483C87.3403 121.483 86.521 120.664 86.521 119.654V117.824H90.181ZM90.181 136.12H86.521C85.5103 136.12 84.691 135.301 84.691 134.291H92.011C92.011 135.301 91.1917 136.12 90.181 136.12ZM97.8569 121.888L97.1899 127.887H91.096C90.5907 127.887 90.181 128.296 90.181 128.802C90.181 129.307 90.5907 129.716 91.096 129.716H96.9383C96.5261 131.331 95.0719 132.46 93.4055 132.461H83.2966C81.6301 132.46 80.176 131.331 79.7638 129.716H85.606C86.1114 129.716 86.521 129.307 86.521 128.802C86.521 128.296 86.1114 127.887 85.606 127.887H79.5121L78.8451 121.888C78.7301 120.853 79.0611 119.819 79.7553 119.043C80.4495 118.267 81.4412 117.824 82.4822 117.824H84.691V119.654C84.691 121.674 86.3297 123.313 88.351 123.313C90.3724 123.313 92.011 121.674 92.011 119.654V117.824H94.2198C95.2608 117.824 96.2526 118.267 96.9468 119.043C97.641 119.819 97.972 120.853 97.8569 121.888Z" fill="#2626BC"/>
<path d="M78.2852 102.272C78.2852 103.788 79.5141 105.017 81.0302 105.017C82.5462 105.017 83.7751 103.788 83.7751 102.272C83.7751 100.757 82.5462 99.5278 81.0302 99.5278C79.5141 99.5278 78.2852 100.757 78.2852 102.272ZM81.9452 102.272C81.9452 102.777 81.5355 103.187 81.0302 103.187C80.5248 103.187 80.1152 102.777 80.1152 102.272C80.1152 101.767 80.5248 101.357 81.0302 101.357C81.5355 101.357 81.9452 101.767 81.9452 102.272Z" fill="#2626BC"/>
<path d="M95.6708 105.017C97.1868 105.017 98.4158 103.788 98.4158 102.272C98.4158 100.757 97.1868 99.5278 95.6708 99.5278C94.1548 99.5278 92.9258 100.757 92.9258 102.272C92.9258 103.788 94.1548 105.017 95.6708 105.017ZM95.6708 101.357C96.1761 101.357 96.5858 101.767 96.5858 102.272C96.5858 102.777 96.1761 103.187 95.6708 103.187C95.1654 103.187 94.7558 102.777 94.7558 102.272C94.7558 101.767 95.1654 101.357 95.6708 101.357Z" fill="#2626BC"/>
<path d="M73.7109 103.187C73.7165 108.237 77.8098 112.33 82.8609 112.335H93.8409C98.8943 112.335 102.991 108.24 102.991 103.187C102.991 98.1348 98.8943 94.0391 93.8409 94.0391H82.8609C77.8098 94.0446 73.7165 98.1371 73.7109 103.187ZM101.161 103.187C101.156 107.227 97.8818 110.501 93.8409 110.506H82.8609C78.8182 110.506 75.5409 107.229 75.5409 103.187C75.5409 99.1453 78.8182 95.8687 82.8609 95.8687H93.8409C97.8818 95.8732 101.156 99.1472 101.161 103.187Z" fill="#2626BC"/>
<path d="M88.3505 107.761C89.5907 107.814 90.8044 107.391 91.7424 106.578C92.0961 106.225 92.0986 105.653 91.7479 105.298C91.3971 104.94 90.8248 104.928 90.4596 105.271C89.8584 105.737 89.11 105.971 88.3505 105.932C87.5932 105.971 86.8467 105.738 86.246 105.276C85.8814 104.955 85.3296 104.975 84.9891 105.321C84.6486 105.667 84.638 106.219 84.965 106.578C85.9014 107.39 87.1124 107.813 88.3505 107.761V107.761Z" fill="#2626BC"/>
<path d="M85.6055 92.2092C85.6055 92.7145 86.0151 93.1241 86.5205 93.1241H90.1805C90.6858 93.1241 91.0955 92.7145 91.0955 92.2092C91.0955 91.704 90.6858 91.2944 90.1805 91.2944H86.5205C86.0151 91.2944 85.6055 91.704 85.6055 92.2092Z" fill="#2626BC"/>
<path d="M89.2665 90.3799C89.7718 90.3799 90.1815 89.9703 90.1815 89.4651C90.1815 88.9599 89.7718 88.5503 89.2665 88.5503H87.4365C86.9311 88.5503 86.5215 88.9599 86.5215 89.4651C86.5215 89.9703 86.9311 90.3799 87.4365 90.3799H89.2665Z" fill="#2626BC"/>
<path d="M121.292 130.631H104.822C102.801 130.631 101.162 132.27 101.162 134.291C101.162 136.312 102.801 137.95 104.822 137.95H121.292C123.313 137.95 124.952 136.312 124.952 134.291C124.952 132.27 123.313 130.631 121.292 130.631ZM121.292 136.12H104.822C103.811 136.12 102.992 135.301 102.992 134.291C102.992 133.28 103.811 132.461 104.822 132.461H121.292C122.303 132.461 123.122 133.28 123.122 134.291C123.122 135.301 122.303 136.12 121.292 136.12Z" fill="#2626BC"/>
<path d="M121.292 115.995H104.822C102.801 115.995 101.162 117.633 101.162 119.654V125.143C101.162 127.164 102.801 128.802 104.822 128.802H121.292C123.313 128.802 124.952 127.164 124.952 125.143V119.654C124.952 117.633 123.313 115.995 121.292 115.995ZM123.122 125.143C123.122 126.153 122.303 126.972 121.292 126.972H104.822C103.811 126.972 102.992 126.153 102.992 125.143V119.654C102.992 118.643 103.811 117.824 104.822 117.824H121.292C122.303 117.824 123.122 118.643 123.122 119.654V125.143Z" fill="#2626BC"/>
<path d="M115.8 119.654H105.735C105.23 119.654 104.82 120.063 104.82 120.569C104.82 121.074 105.23 121.483 105.735 121.483H115.8C116.306 121.483 116.715 121.074 116.715 120.569C116.715 120.063 116.306 119.654 115.8 119.654Z" fill="#2626BC"/>
<path d="M111.225 123.313H105.735C105.23 123.313 104.82 123.723 104.82 124.228C104.82 124.733 105.23 125.143 105.735 125.143H111.225C111.731 125.143 112.14 124.733 112.14 124.228C112.14 123.723 111.731 123.313 111.225 123.313Z" fill="#2626BC"/>
<path d="M113.057 105.932C112.551 105.932 112.142 106.341 112.142 106.846V111.541L110.819 110.659C110.547 110.478 110.199 110.455 109.906 110.6C109.613 110.745 109.42 111.035 109.398 111.361C109.377 111.688 109.532 112 109.804 112.182L112.549 114.011C112.856 114.216 113.257 114.216 113.564 114.011L116.309 112.182C116.581 112 116.736 111.688 116.715 111.361C116.694 111.035 116.5 110.745 116.207 110.6C115.914 110.455 115.566 110.478 115.294 110.659L113.972 111.541V106.846C113.972 106.341 113.562 105.932 113.057 105.932Z" fill="#2626BC"/>
</g>
<defs>
<linearGradient id="paint0_linear" x1="14.2317" y1="57.5687" x2="202.889" y2="149.782" gradientUnits="userSpaceOnUse">
<stop stop-color="#D2DEFF" stop-opacity="0.2"/>
<stop offset="1" stop-color="#B7C5FF"/>
</linearGradient>
<clipPath id="clip0">
<rect width="200" height="200" fill="white"/>
</clipPath>
<clipPath id="clip1">
<rect width="18" height="18" fill="white" transform="translate(139 119)"/>
</clipPath>
<clipPath id="clip2">
<rect width="24" height="24" fill="white" transform="translate(30.248 60.8198)"/>
</clipPath>
</defs>
</svg>
