<svg width="200" height="200" viewBox="0 0 200 200" fill="none" xmlns="http://www.w3.org/2000/svg">
<g clip-path="url(#clip0)">
<path d="M149.455 67.9747C149.38 67.9743 149.305 67.9739 149.23 67.9739C136.717 67.9544 124.861 62.5661 116.636 53.1356C104.384 39.0872 86.3238 30.2364 66.1984 30.3259C29.6703 30.488 -0.46679 61.1778 0.00547604 97.7032C0.475398 134.026 30.066 163.326 66.5004 163.326C76.7906 163.326 86.534 160.988 95.2297 156.814C102.727 153.215 111.661 154.164 118.264 159.22C126.804 165.761 137.479 169.655 149.063 169.675C176.947 169.721 199.837 147.011 199.999 119.127C200.163 90.9829 177.561 68.1403 149.455 67.9747V67.9747Z" fill="url(#paint0_linear)"/>
<path opacity="0.1" d="M178.125 37.0752V148.11C178.125 151.345 175.5 153.97 172.266 153.97H27.7344C24.5 153.97 21.875 151.345 21.875 148.11V37.0752C21.875 33.8408 24.5 31.2158 27.7344 31.2158H172.266C175.5 31.2158 178.125 33.8408 178.125 37.0752V37.0752Z" fill="#2626BC"/>
<path d="M178.125 45.2783V156.313C178.125 159.548 175.5 162.173 172.266 162.173H27.7344C24.5 162.173 21.875 159.548 21.875 156.313V45.2783C21.875 42.0439 24.5 39.4189 27.7344 39.4189H172.266C175.5 39.4189 178.125 42.0439 178.125 45.2783V45.2783Z" fill="white"/>
<path d="M36.1074 58.2363H163.891V100.488H36.1074V58.2363Z" fill="#6583FE"/>
<path d="M178.125 58.2362V45.2788C178.125 42.0429 175.502 39.4194 172.266 39.4194H27.7344C24.4984 39.4194 21.875 42.0429 21.875 45.2788V58.2362H178.125Z" fill="white"/>
<path d="M68.541 109.499H36.148C35.3445 109.499 34.6934 108.848 34.6934 108.045V81.9586C34.6934 81.1551 35.3445 80.5039 36.148 80.5039H68.541C69.3445 80.5039 69.9957 81.1551 69.9957 81.9586V108.045C69.9957 108.848 69.3445 109.499 68.541 109.499Z" fill="white"/>
<path d="M65.3492 123.678H39.3391C38.234 123.678 37.3379 122.782 37.3379 121.677C37.3379 120.572 38.2336 119.676 39.3391 119.676H65.3492C66.4543 119.676 67.3504 120.572 67.3504 121.677C67.3504 122.782 66.4543 123.678 65.3492 123.678Z" fill="#2626BC"/>
<path d="M116.197 109.499H83.8043C83.0008 109.499 82.3496 108.848 82.3496 108.045V81.9586C82.3496 81.1551 83.0008 80.5039 83.8043 80.5039H116.197C117.001 80.5039 117.652 81.1551 117.652 81.9586V108.045C117.652 108.848 117.001 109.499 116.197 109.499Z" fill="white"/>
<path d="M113.005 123.678H86.9953C85.8902 123.678 84.9941 122.782 84.9941 121.677C84.9941 120.572 85.8898 119.676 86.9953 119.676H113.005C114.111 119.676 115.007 120.572 115.007 121.677C115.007 122.782 114.111 123.678 113.005 123.678Z" fill="#2626BC"/>
<path d="M163.854 109.499H131.461C130.657 109.499 130.006 108.848 130.006 108.045V81.9586C130.006 81.1551 130.657 80.5039 131.461 80.5039H163.854C164.657 80.5039 165.308 81.1551 165.308 81.9586V108.045C165.308 108.848 164.657 109.499 163.854 109.499Z" fill="white"/>
<path d="M160.662 123.678H134.652C133.546 123.678 132.65 122.782 132.65 121.677C132.65 120.572 133.546 119.676 134.652 119.676H160.662C161.767 119.676 162.663 120.572 162.663 121.677C162.663 122.782 161.767 123.678 160.662 123.678Z" fill="#2626BC"/>
<path d="M163.852 78.5503H131.459C129.58 78.5503 128.051 80.0792 128.051 81.9585V108.044C128.051 109.923 129.58 111.452 131.459 111.452H163.852C165.731 111.452 167.26 109.923 167.26 108.044V81.9585C167.26 80.0792 165.731 78.5503 163.852 78.5503ZM163.354 93.0479H144.009V82.4565H163.354V93.0479ZM131.957 82.4565H140.103V107.546H131.957V82.4565ZM144.01 107.546V96.9546H163.354V107.546H144.01Z" fill="#2626BC"/>
<path d="M153.63 127.098H141.683C140.578 127.098 139.682 127.993 139.682 129.099C139.682 130.204 140.577 131.1 141.683 131.1H153.63C154.736 131.1 155.632 130.204 155.632 129.099C155.631 127.993 154.736 127.098 153.63 127.098Z" fill="#2626BC"/>
<path d="M61.3281 149.075H43.3594C42.7121 149.075 42.1875 148.55 42.1875 147.903V141.393C42.1875 140.745 42.7121 140.221 43.3594 140.221H61.3281C61.9754 140.221 62.5 140.745 62.5 141.393V147.903C62.5 148.55 61.9754 149.075 61.3281 149.075Z" fill="#6583FE"/>
<path d="M109.398 149.075H91.4297C90.7824 149.075 90.2578 148.55 90.2578 147.903V141.393C90.2578 140.745 90.7824 140.221 91.4297 140.221H109.398C110.046 140.221 110.57 140.745 110.57 141.393V147.903C110.57 148.55 110.046 149.075 109.398 149.075Z" fill="#6583FE"/>
<path d="M157.467 149.075H139.498C138.851 149.075 138.326 148.55 138.326 147.903V141.393C138.326 140.745 138.851 140.221 139.498 140.221H157.467C158.114 140.221 158.639 140.745 158.639 141.393V147.903C158.639 148.55 158.114 149.075 157.467 149.075Z" fill="#6583FE"/>
<path d="M100.526 150.253L112.749 183.145C113.263 184.529 115.163 184.677 115.885 183.389L122.832 170.995C122.988 170.717 123.218 170.487 123.497 170.331L135.89 163.384C137.178 162.661 137.031 160.762 135.646 160.248L102.755 148.025C101.364 147.508 100.01 148.863 100.526 150.253V150.253Z" fill="white"/>
<path d="M34.7969 48.7988V48.8559C34.7969 49.9348 35.6711 50.809 36.75 50.809C37.8289 50.809 38.7031 49.9348 38.7031 48.8559V48.7988C38.7031 47.7199 37.8289 46.8457 36.75 46.8457C35.6711 46.8457 34.7969 47.7199 34.7969 48.7988Z" fill="#2626BC"/>
<path d="M42.3477 48.7988V48.8559C42.3477 49.9348 43.2219 50.809 44.3008 50.809C45.3797 50.809 46.2539 49.9348 46.2539 48.8559V48.7988C46.2539 47.7199 45.3797 46.8457 44.3008 46.8457C43.2219 46.8457 42.3477 47.7199 42.3477 48.7988Z" fill="#2626BC"/>
<path d="M49.8945 48.7988V48.8559C49.8945 49.9348 50.7687 50.809 51.8477 50.809C52.9266 50.809 53.8008 49.9348 53.8008 48.8559V48.7988C53.8008 47.7199 52.9266 46.8457 51.8477 46.8457C50.7687 46.8457 49.8945 47.7199 49.8945 48.7988Z" fill="#2626BC"/>
<path d="M172.266 37.4658H27.7344C23.4266 37.4658 19.9219 40.9705 19.9219 45.2783V58.2357C19.9219 59.3146 20.7961 60.1889 21.875 60.1889H164.714C165.793 60.1889 166.667 59.3146 166.667 58.2357C166.667 57.1568 165.793 56.2826 164.714 56.2826H23.8281V45.2783C23.8281 43.1244 25.5805 41.3721 27.7344 41.3721H172.266C174.42 41.3721 176.172 43.1244 176.172 45.2783V156.313C176.172 158.467 174.42 160.219 172.266 160.219H138.334C137.927 159.401 137.227 158.752 136.325 158.417L103.434 146.194C102.066 145.685 100.575 146.011 99.5434 147.043C98.5113 148.075 98.1859 149.566 98.6945 150.933L102.145 160.219H27.7344C25.5805 160.219 23.8281 158.467 23.8281 156.313V68.9939C23.8281 67.915 22.9539 67.0408 21.875 67.0408C20.7961 67.0408 19.9219 67.915 19.9219 68.9939V156.313C19.9219 160.62 23.4266 164.125 27.7344 164.125H103.597L110.918 183.826C111.424 185.188 112.638 186.104 114.087 186.216C114.187 186.224 114.286 186.228 114.384 186.228C115.717 186.228 116.927 185.524 117.588 184.344L124.505 172.004L136.845 165.087C137.289 164.838 137.662 164.508 137.959 164.125H172.266C176.573 164.125 180.078 160.62 180.078 156.313V45.2783C180.078 40.9705 176.573 37.4658 172.266 37.4658V37.4658ZM122.54 168.628C121.947 168.96 121.459 169.449 121.128 170.04L114.413 182.018L102.523 150.023L134.519 161.913L122.54 168.628Z" fill="#2626BC"/>
<path d="M95.7328 183.065C94.6539 183.065 93.7797 182.191 93.7797 181.112C93.7797 179.816 92.7258 178.762 91.4297 178.762C90.3508 178.762 89.4766 177.888 89.4766 176.809C89.4766 175.73 90.3508 174.856 91.4297 174.856C92.7254 174.856 93.7797 173.801 93.7797 172.505C93.7797 171.426 94.6539 170.552 95.7328 170.552C96.8117 170.552 97.6859 171.426 97.6859 172.505C97.6859 173.801 98.7398 174.856 100.036 174.856C101.115 174.856 101.989 175.73 101.989 176.809C101.989 177.888 101.115 178.762 100.036 178.762C98.7402 178.762 97.6859 179.816 97.6859 181.112C97.6859 182.191 96.8117 183.065 95.7328 183.065Z" fill="#6583FE"/>
<path d="M68.5395 78.5503H36.1465C34.2672 78.5503 32.7383 80.0792 32.7383 81.9585V108.044C32.7383 109.923 34.2672 111.452 36.1465 111.452H68.5395C70.4188 111.452 71.9477 109.923 71.9477 108.044V81.9585C71.9473 80.0792 70.4184 78.5503 68.5395 78.5503ZM68.041 82.4565V88.9483H36.6445V82.4565H68.041ZM36.6445 92.8546H58.0051V107.546H36.6445V92.8546ZM61.9113 107.546V92.855H68.041V107.546H61.9113Z" fill="#2626BC"/>
<path d="M58.318 127.098H46.3703C45.2652 127.098 44.3691 127.994 44.3691 129.099C44.3691 130.204 45.2648 131.1 46.3703 131.1H58.318C59.423 131.1 60.3191 130.204 60.3191 129.099C60.3188 127.994 59.423 127.098 58.318 127.098Z" fill="#2626BC"/>
<path d="M95.9336 25.3925L91.6387 21.0976C90.8766 20.3347 89.6391 20.3347 88.877 21.0976L84.582 25.3925C84.2156 25.7589 84.0098 26.2554 84.0098 26.7733C84.0098 27.2913 84.2156 27.7882 84.582 28.1546L88.877 32.4491C89.2586 32.8304 89.7582 33.021 90.2578 33.021C90.7574 33.021 91.2574 32.8304 91.6387 32.4491L95.9336 28.1546C96.3 27.7882 96.5059 27.2913 96.5059 26.7733C96.5059 26.2554 96.3 25.7589 95.9336 25.3925ZM90.2574 28.3062L88.7246 26.7733L90.2574 25.2405L91.7902 26.7733L90.2574 28.3062Z" fill="#6583FE"/>
<path d="M116.196 78.5503H83.8027C81.9234 78.5503 80.3945 80.0792 80.3945 81.9585V108.044C80.3945 109.923 81.9234 111.452 83.8027 111.452H116.196C118.075 111.452 119.604 109.923 119.604 108.044V81.9585C119.604 80.0792 118.075 78.5503 116.196 78.5503ZM115.697 93.6358H105.468V82.4565H115.698V93.6358H115.697ZM101.562 82.4565V93.6358H84.3008V82.4565H101.562ZM84.3008 97.5421H92.968V107.546H84.3008V97.5421ZM96.8742 107.546V97.5425H115.698V107.546H96.8742Z" fill="#2626BC"/>
<path d="M105.974 127.098H94.0266C92.9215 127.098 92.0254 127.994 92.0254 129.099C92.0254 130.204 92.9211 131.1 94.0266 131.1H105.974C107.079 131.1 107.975 130.204 107.975 129.099C107.975 127.994 107.079 127.098 105.974 127.098Z" fill="#2626BC"/>
<path d="M71.6512 18.0761C70.3559 18.0761 69.3016 17.0222 69.3016 15.7261C69.3016 14.6472 68.4273 13.7729 67.3484 13.7729C66.2695 13.7729 65.3953 14.6472 65.3953 15.7261C65.3953 17.0218 64.341 18.0761 63.0449 18.0761C61.966 18.0761 61.0918 18.9503 61.0918 20.0292C61.0918 21.1081 61.966 21.9823 63.0449 21.9823C64.3406 21.9823 65.3953 23.0362 65.3953 24.3323C65.3953 25.4112 66.2695 26.2855 67.3484 26.2855C68.4273 26.2855 69.3016 25.4112 69.3016 24.3323C69.3016 23.0366 70.3555 21.9823 71.6512 21.9823C72.7301 21.9823 73.6043 21.1081 73.6043 20.0292C73.6043 18.9503 72.7301 18.0761 71.6512 18.0761V18.0761Z" fill="#6583FE"/>
<path d="M143.648 25.3925L139.354 21.0976C138.591 20.3347 137.354 20.3347 136.592 21.0976L132.297 25.3925C131.93 25.7589 131.725 26.2554 131.725 26.7733C131.725 27.2913 131.93 27.7882 132.297 28.1546L136.592 32.4491C136.973 32.8304 137.473 33.021 137.973 33.021C138.472 33.021 138.972 32.8304 139.354 32.4491L143.648 28.1546C144.015 27.7882 144.221 27.2913 144.221 26.7733C144.221 26.2554 144.015 25.7589 143.648 25.3925V25.3925ZM137.973 28.3062L136.44 26.7733L137.973 25.2405L139.505 26.7733L137.973 28.3062Z" fill="#6583FE"/>
</g>
<defs>
<linearGradient id="paint0_linear" x1="-5.54452" y1="77.0208" x2="206.802" y2="135.394" gradientUnits="userSpaceOnUse">
<stop stop-color="#D2DEFF" stop-opacity="0"/>
<stop offset="1" stop-color="#B7C5FF"/>
</linearGradient>
<clipPath id="clip0">
<rect width="200" height="200" fill="white"/>
</clipPath>
</defs>
</svg>
