<svg width="200" height="200" viewBox="0 0 200 200" fill="none" xmlns="http://www.w3.org/2000/svg">
<g clip-path="url(#clip0)">
<path d="M121.124 34.9034C112.752 14.3296 92.502 -0.144613 68.8868 0.00109012C38.7603 0.186637 13.9899 24.487 13.2591 54.605C12.8985 69.4644 18.3286 83.0507 27.4521 93.2702C34.7251 101.417 38.3751 112.147 38.0071 123.062C37.9583 124.513 37.9509 125.975 37.9868 127.445C38.9493 167.055 72.7864 200.024 112.408 200C153.475 199.975 186.759 166.676 186.759 125.603C186.759 95.4956 168.875 69.5683 143.151 57.8593C133.125 53.2956 125.275 45.1066 121.124 34.9034V34.9034Z" fill="url(#paint0_linear)"/>
<path opacity="0.1" d="M178.125 40.3809V151.416C178.125 154.65 175.5 157.275 172.266 157.275H27.7344C24.5 157.275 21.875 154.65 21.875 151.416V40.3809C21.875 37.1465 24.5 34.5215 27.7344 34.5215H172.266C175.5 34.5215 178.125 37.1465 178.125 40.3809Z" fill="#2626BC"/>
<path d="M178.125 48.584V159.619C178.125 162.854 175.5 165.479 172.266 165.479H27.7344C24.5 165.479 21.875 162.854 21.875 159.619V48.584C21.875 45.3496 24.5 42.7246 27.7344 42.7246H172.266C175.5 42.7246 178.125 45.3496 178.125 48.584Z" fill="white"/>
<path d="M163.17 165.478H36.832V154.883C36.832 154.236 37.3566 153.711 38.0039 153.711H161.998C162.645 153.711 163.17 154.236 163.17 154.883V165.478H163.17Z" fill="#6583FE"/>
<path d="M36.8324 61.541H163.17V69.7926C163.17 70.4398 162.646 70.9645 161.998 70.9645H38.0039C37.3566 70.9645 36.832 70.4398 36.832 69.7926L36.8324 61.541Z" fill="#6583FE"/>
<path d="M178.125 61.5409V48.5835C178.125 45.3476 175.502 42.7241 172.266 42.7241H27.7344C24.4984 42.7241 21.875 45.3476 21.875 48.5835V61.5409H178.125Z" fill="white"/>
<path d="M36.75 54.1138C35.6711 54.1138 34.7969 53.2392 34.7969 52.1606V52.104C34.7969 51.0255 35.6711 50.1509 36.75 50.1509C37.8289 50.1509 38.7031 51.0255 38.7031 52.104V52.1606C38.7031 53.2392 37.8289 54.1138 36.75 54.1138Z" fill="#2626BC"/>
<path d="M44.3008 54.1138C43.2219 54.1138 42.3477 53.2392 42.3477 52.1606V52.104C42.3477 51.0255 43.2219 50.1509 44.3008 50.1509C45.3797 50.1509 46.2539 51.0255 46.2539 52.104V52.1606C46.2539 53.2392 45.3797 54.1138 44.3008 54.1138Z" fill="#2626BC"/>
<path d="M51.8477 54.1138C50.7687 54.1138 49.8945 53.2392 49.8945 52.1606V52.104C49.8945 51.0255 50.7687 50.1509 51.8477 50.1509C52.9266 50.1509 53.8008 51.0255 53.8008 52.104V52.1606C53.8008 53.2392 52.9266 54.1138 51.8477 54.1138Z" fill="#2626BC"/>
<path d="M172.266 40.771H27.7344C23.4266 40.771 19.9219 44.2757 19.9219 48.5835V61.5616C19.9219 62.6401 20.7961 63.5148 21.875 63.5148C21.9449 63.5148 22.0113 63.5015 22.0793 63.494H178.125C179.204 63.494 180.078 62.6194 180.078 61.5409V48.5835C180.078 44.2757 176.573 40.771 172.266 40.771ZM27.7344 44.6772H172.266C174.42 44.6772 176.172 46.4296 176.172 48.5835V59.5878H23.8281V48.5835C23.8277 46.4292 25.5801 44.6772 27.7344 44.6772Z" fill="#2626BC"/>
<path d="M178.125 70.3455C177.046 70.3455 176.172 71.2201 176.172 72.2986V159.617C176.172 161.771 174.42 163.523 172.266 163.523H27.7344C25.5805 163.523 23.8281 161.771 23.8281 159.617V72.2783C23.8281 71.1998 22.9539 70.3252 21.875 70.3252C20.7961 70.3252 19.9219 71.1998 19.9219 72.2783V159.617C19.9219 163.925 23.4266 167.43 27.7344 167.43H172.266C176.573 167.43 180.078 163.925 180.078 159.617V72.2986C180.078 71.2201 179.204 70.3455 178.125 70.3455V70.3455Z" fill="#2626BC"/>
<path d="M83.577 111.853H38.0039C37.3566 111.853 36.832 111.329 36.832 110.681V78.9824C36.832 78.3352 37.3566 77.8105 38.0039 77.8105H83.577C84.2242 77.8105 84.7488 78.3352 84.7488 78.9824V110.681C84.7488 111.329 84.2242 111.853 83.577 111.853Z" fill="#6583FE"/>
<path d="M55.127 89.6121V100.051C55.127 100.955 56.1063 101.518 56.8875 101.064L65.8707 95.8449C66.648 95.393 66.648 94.2703 65.8707 93.8184L56.8875 88.5988C56.1063 88.1449 55.127 88.7086 55.127 89.6121V89.6121Z" fill="white"/>
<path d="M93.1453 138.973H38.7883C37.7078 138.973 36.832 138.097 36.832 137.017C36.832 135.936 37.7078 135.061 38.7883 135.061H93.1453C94.2258 135.061 95.1016 135.936 95.1016 137.017C95.1016 138.097 94.2258 138.973 93.1453 138.973Z" fill="#2626BC"/>
<path d="M93.1457 124.526H66.4582C65.3777 124.526 64.502 123.65 64.502 122.57C64.502 121.49 65.3777 120.614 66.4582 120.614H93.1457C94.2262 120.614 95.102 121.49 95.102 122.57C95.102 123.65 94.2262 124.526 93.1457 124.526Z" fill="#2626BC"/>
<path d="M93.1453 146.733H38.7883C37.7078 146.733 36.832 145.858 36.832 144.777C36.832 143.697 37.7078 142.821 38.7883 142.821H93.1453C94.2258 142.821 95.1016 143.697 95.1016 144.777C95.1016 145.857 94.2258 146.733 93.1453 146.733Z" fill="#2626BC"/>
<path d="M161.213 96.0878H96.0793C94.9988 96.0878 94.123 95.212 94.123 94.1315C94.123 93.0511 94.9988 92.1753 96.0793 92.1753H161.213C162.293 92.1753 163.169 93.0511 163.169 94.1315C163.17 95.212 162.294 96.0878 161.213 96.0878Z" fill="#2626BC"/>
<path d="M137.775 81.723H96.0793C94.9988 81.723 94.123 80.8473 94.123 79.7668C94.123 78.6863 94.9988 77.8105 96.0793 77.8105H137.775C138.856 77.8105 139.732 78.6863 139.732 79.7668C139.732 80.8469 138.856 81.723 137.775 81.723Z" fill="#2626BC"/>
<path d="M161.213 103.848H96.0793C94.9988 103.848 94.123 102.972 94.123 101.892C94.123 100.811 94.9988 99.9355 96.0793 99.9355H161.213C162.293 99.9355 163.169 100.811 163.169 101.892C163.17 102.972 162.294 103.848 161.213 103.848Z" fill="#2626BC"/>
<path d="M161.213 111.771H96.0793C94.9988 111.771 94.123 110.896 94.123 109.815C94.123 108.735 94.9988 107.859 96.0793 107.859H161.213C162.293 107.859 163.169 108.735 163.169 109.815C163.17 110.895 162.294 111.771 161.213 111.771Z" fill="#2626BC"/>
<path d="M161.997 146.733H103.904C103.257 146.733 102.732 146.208 102.732 145.561V121.785C102.732 121.138 103.257 120.613 103.904 120.613H161.997C162.644 120.613 163.169 121.138 163.169 121.785V145.561C163.169 146.208 162.644 146.733 161.997 146.733V146.733Z" fill="#6583FE"/>
<path d="M139.557 135.857C140.763 135.857 141.74 134.879 141.74 133.673C141.74 132.467 140.763 131.49 139.557 131.49C138.351 131.49 137.373 132.467 137.373 133.673C137.373 134.879 138.351 135.857 139.557 135.857Z" fill="#2626BC"/>
<path d="M132.951 135.857C134.157 135.857 135.135 134.879 135.135 133.673C135.135 132.467 134.157 131.49 132.951 131.49C131.745 131.49 130.768 132.467 130.768 133.673C130.768 134.879 131.745 135.857 132.951 135.857Z" fill="#2626BC"/>
<path d="M126.346 135.857C127.552 135.857 128.529 134.879 128.529 133.673C128.529 132.467 127.552 131.49 126.346 131.49C125.14 131.49 124.162 132.467 124.162 133.673C124.162 134.879 125.14 135.857 126.346 135.857Z" fill="#2626BC"/>
<path d="M41.6749 185.602C41.1569 185.602 40.6601 185.396 40.294 185.03L35.9901 180.726C35.2272 179.963 35.2272 178.727 35.9901 177.964L40.294 173.66C40.6604 173.294 41.1569 173.088 41.6749 173.088C42.1929 173.088 42.6897 173.294 43.0558 173.66L47.3601 177.964C47.7265 178.331 47.9323 178.827 47.9323 179.345C47.9323 179.864 47.7269 180.36 47.3601 180.727L43.0558 185.031C42.6897 185.396 42.1933 185.602 41.6749 185.602ZM40.1335 179.345L41.6749 180.887L43.2167 179.345L41.6749 177.803L40.1335 179.345Z" fill="#6583FE"/>
<path d="M112.884 24.2118C112.366 24.2118 111.869 24.006 111.503 23.6399L107.199 19.336C106.833 18.9696 106.627 18.4731 106.627 17.9548C106.627 17.4364 106.833 16.9399 107.199 16.5735L111.504 12.2696C112.266 11.5071 113.503 11.5071 114.265 12.2696L118.569 16.5735C119.332 17.3364 119.332 18.5731 118.569 19.3356L114.265 23.6396C113.899 24.006 113.402 24.2118 112.884 24.2118V24.2118ZM111.342 17.9548L112.884 19.4966L114.425 17.9548L112.884 16.413L111.342 17.9548Z" fill="#6583FE"/>
<path d="M163.17 188.302C162.67 188.302 162.17 188.112 161.789 187.73L157.484 183.426C157.118 183.06 156.912 182.563 156.912 182.045C156.912 181.527 157.118 181.03 157.484 180.664L161.789 176.36C162.155 175.994 162.652 175.788 163.17 175.788C163.688 175.788 164.184 175.994 164.55 176.36L168.854 180.664C169.617 181.427 169.617 182.663 168.854 183.426L164.55 187.73C164.169 188.111 163.669 188.302 163.17 188.302V188.302ZM161.628 182.045L163.17 183.587L164.711 182.045L163.17 180.503L161.628 182.045Z" fill="#6583FE"/>
<path d="M132.951 28.5155C131.872 28.5155 130.998 27.6409 130.998 26.5624C130.998 25.2663 129.943 24.2116 128.646 24.2116C127.568 24.2116 126.693 23.337 126.693 22.2585C126.693 21.18 127.568 20.3054 128.646 20.3054C129.943 20.3054 130.998 19.2507 130.998 17.9546C130.998 16.8761 131.872 16.0015 132.951 16.0015C134.03 16.0015 134.904 16.8761 134.904 17.9546C134.904 19.2507 135.958 20.3054 137.255 20.3054C138.334 20.3054 139.208 21.18 139.208 22.2585C139.208 23.337 138.334 24.2116 137.255 24.2116C135.959 24.2116 134.904 25.2663 134.904 26.5624C134.904 27.6409 134.03 28.5155 132.951 28.5155Z" fill="#6583FE"/>
</g>
<defs>
<linearGradient id="paint0_linear" x1="11.3036" y1="18.3777" x2="171.197" y2="187.577" gradientUnits="userSpaceOnUse">
<stop stop-color="#D2DEFF" stop-opacity="0"/>
<stop offset="1" stop-color="#B7C5FF"/>
</linearGradient>
<clipPath id="clip0">
<rect width="200" height="200" fill="white"/>
</clipPath>
</defs>
</svg>
