<svg width="200" height="200" viewBox="0 0 200 200" fill="none" xmlns="http://www.w3.org/2000/svg">
<g clip-path="url(#clip0)">
<path d="M159.464 59.2862C150.208 55.6784 142.388 49.0952 137.605 40.3874C129.562 25.744 113.999 15.8179 96.1121 15.8179C77.5457 15.8179 61.4848 26.512 53.7383 42.0753C48.9938 51.6069 40.9203 59.0909 31.0469 63.0757C16.4574 68.964 4.20978 82.421 0.323064 103.459C-0.103498 105.768 -0.109748 108.141 0.316814 110.45C6.35119 143.095 32.5039 157.495 56.3067 153.676C69.6371 151.538 83.1317 155.985 93.0125 165.185C113.104 183.893 145.311 189.758 176.576 169.705C180.239 167.355 185.153 162.426 187.5 158.761C214.44 116.703 194.484 72.9354 159.464 59.2862V59.2862Z" fill="url(#paint0_linear)"/>
<path opacity="0.1" d="M154.788 21.6946V168.158C154.788 171.396 152.156 174.028 148.918 174.028H51.0809C47.843 174.028 45.2109 171.396 45.2109 168.158V21.6946C45.2109 18.4567 47.843 15.8247 51.0809 15.8247H148.919C152.157 15.8247 154.788 18.4563 154.788 21.6946V21.6946Z" fill="#2626BC"/>
<path d="M154.789 29.8989V176.36C154.789 179.598 152.156 182.231 148.918 182.231H51.082C47.8437 182.231 45.2109 179.598 45.2109 176.36V29.8989C45.2109 26.6606 47.8437 24.0278 51.082 24.0278H148.918C152.156 24.0278 154.789 26.6606 154.789 29.8989V29.8989Z" fill="white"/>
<path d="M72.6562 42.8799H127.344V135.38H72.6562V42.8799Z" fill="white"/>
<path d="M126.172 143.487H73.8281C73.1809 143.487 72.6562 142.962 72.6562 142.315V128.445C72.6562 127.798 73.1809 127.273 73.8281 127.273H126.172C126.819 127.273 127.344 127.798 127.344 128.445V142.315C127.344 142.962 126.819 143.487 126.172 143.487Z" fill="#6583FE"/>
<path d="M72.6562 51.1099H127.344V143.61H72.6562V51.1099Z" stroke="#2626BC" stroke-width="5" stroke-miterlimit="10" stroke-linecap="round" stroke-linejoin="round"/>
<path d="M56.1703 70.6152C50.1187 70.6152 45.2129 65.7094 45.2129 59.6578V42.8809H67.1281V59.6578C67.1281 65.7094 62.2223 70.6152 56.1703 70.6152Z" fill="#6583FE"/>
<path d="M100 70.6152C93.9488 70.6152 89.043 65.7094 89.043 59.6578V42.8809H110.958V59.6578C110.958 65.7094 106.052 70.6152 100 70.6152Z" fill="#6583FE"/>
<path d="M143.83 70.6152C137.779 70.6152 132.873 65.7094 132.873 59.6578V42.8809H154.788V59.6578C154.788 65.7094 149.882 70.6152 143.83 70.6152Z" fill="#6583FE"/>
<path d="M78.0844 70.6152C72.0328 70.6152 67.127 65.7094 67.127 59.6578V42.8809H89.0422V59.6578C89.0422 65.7094 84.1363 70.6152 78.0844 70.6152V70.6152Z" fill="white"/>
<path d="M78.0844 70.6152C72.0328 70.6152 67.127 65.7094 67.127 59.6578V42.8809H89.0422V59.6578C89.0422 65.7094 84.1363 70.6152 78.0844 70.6152V70.6152Z" stroke="#2626BC" stroke-width="5" stroke-miterlimit="10" stroke-linecap="round" stroke-linejoin="round"/>
<path d="M121.916 70.6152C115.865 70.6152 110.959 65.7094 110.959 59.6578V42.8809H132.874V59.6578C132.874 65.7094 127.968 70.6152 121.916 70.6152Z" fill="white"/>
<path d="M121.916 70.6152C115.865 70.6152 110.959 65.7094 110.959 59.6578V42.8809H132.874V59.6578C132.874 65.7094 127.968 70.6152 121.916 70.6152Z" stroke="#2626BC" stroke-width="5" stroke-miterlimit="10" stroke-linecap="round" stroke-linejoin="round"/>
<path d="M154.789 42.8809V29.8996C154.789 26.6578 152.161 24.0293 148.919 24.0293H51.0832C47.8414 24.0293 45.2129 26.6574 45.2129 29.8996V42.8809H154.789Z" fill="white"/>
<path d="M58.1621 33.4268V33.4838C58.1621 34.5627 59.0363 35.4369 60.1152 35.4369C61.1941 35.4369 62.0684 34.5627 62.0684 33.4838V33.4268C62.0684 32.3479 61.1941 31.4736 60.1152 31.4736C59.0363 31.4736 58.1621 32.3482 58.1621 33.4268Z" fill="#2626BC"/>
<path d="M65.7246 33.4268V33.4838C65.7246 34.5627 66.5988 35.4369 67.6777 35.4369C68.7566 35.4369 69.6309 34.5627 69.6309 33.4838V33.4268C69.6309 32.3479 68.7566 31.4736 67.6777 31.4736C66.5988 31.4736 65.7246 32.3482 65.7246 33.4268Z" fill="#2626BC"/>
<path d="M73.2871 33.4268V33.4838C73.2871 34.5627 74.1613 35.4369 75.2402 35.4369C76.3191 35.4369 77.1934 34.5627 77.1934 33.4838V33.4268C77.1934 32.3479 76.3191 31.4736 75.2402 31.4736C74.1613 31.4736 73.2871 32.3482 73.2871 33.4268Z" fill="#2626BC"/>
<path d="M148.918 22.0767H51.0828C46.7691 22.0767 43.2598 25.586 43.2598 29.8997V42.881C43.2598 43.9599 44.134 44.8341 45.2129 44.8341C45.2813 44.8341 45.3457 44.8208 45.4121 44.8138C45.4785 44.8208 45.543 44.8341 45.6113 44.8341H144.098C145.177 44.8341 146.051 43.9599 146.051 42.881C146.051 41.8021 145.177 40.9278 144.098 40.9278H47.1656V29.8997C47.1656 27.7399 48.9227 25.9829 51.0824 25.9829H148.918C151.078 25.9829 152.835 27.7399 152.835 29.8997V176.359C152.835 178.519 151.078 180.276 148.918 180.276H51.0828C48.923 180.276 47.166 178.519 47.166 176.359V53.6388C47.166 52.5599 46.2918 51.6856 45.2129 51.6856C44.134 51.6856 43.2598 52.5599 43.2598 53.6388V176.359C43.2598 180.673 46.7691 184.183 51.0828 184.183H148.918C153.232 184.183 156.741 180.673 156.741 176.359V29.8997C156.741 25.586 153.232 22.0767 148.918 22.0767V22.0767Z" fill="#2626BC"/>
<path d="M115.296 88.835C114.925 88.3916 114.377 88.1357 113.799 88.1357H90.9133L89.6547 84.242C89.3941 83.4361 88.6434 82.8896 87.7961 82.8896H82.2012C81.1223 82.8896 80.248 83.7639 80.248 84.8428C80.248 85.9217 81.1223 86.7959 82.2012 86.7959H86.375L91.1172 101.465H90.7812C89.7023 101.465 88.8281 102.34 88.8281 103.419C88.8281 104.497 89.7023 105.372 90.7812 105.372H111.42C112.366 105.372 113.176 104.694 113.342 103.762L115.722 90.4322C115.823 89.8631 115.668 89.2783 115.296 88.835V88.835ZM109.784 101.465H95.2227L92.1762 92.042H111.466L109.784 101.465Z" fill="#2626BC"/>
<path d="M94.9637 117.366C92.1609 117.366 89.8809 115.086 89.8809 112.284C89.8809 109.481 92.1609 107.201 94.9637 107.201C97.7664 107.201 100.047 109.481 100.047 112.284C100.047 115.086 97.766 117.366 94.9637 117.366V117.366ZM94.9637 111.108C94.3148 111.108 93.7871 111.635 93.7871 112.284C93.7871 112.933 94.3148 113.461 94.9637 113.461C95.6125 113.461 96.1406 112.933 96.1406 112.284C96.1406 111.635 95.6125 111.108 94.9637 111.108Z" fill="#2626BC"/>
<path d="M109.55 117.366C106.747 117.366 104.467 115.086 104.467 112.284C104.467 109.481 106.747 107.201 109.55 107.201C112.352 107.201 114.632 109.481 114.632 112.284C114.632 115.086 112.352 117.366 109.55 117.366ZM109.55 111.108C108.901 111.108 108.373 111.635 108.373 112.284C108.373 112.933 108.901 113.461 109.55 113.461C110.198 113.461 110.726 112.933 110.726 112.284C110.726 111.635 110.199 111.108 109.55 111.108Z" fill="#2626BC"/>
<path d="M92.1598 158.788H127.35C128.457 158.788 129.354 157.891 129.354 156.784C129.354 155.678 128.457 154.781 127.35 154.781H92.1598C91.0531 154.781 90.1562 155.678 90.1562 156.784C90.1562 157.891 91.0531 158.788 92.1598 158.788Z" fill="#2626BC"/>
<path d="M72.65 158.788H82.2617C83.3684 158.788 84.2652 157.891 84.2652 156.784C84.2652 155.678 83.3684 154.781 82.2617 154.781H72.65C71.5434 154.781 70.6465 155.678 70.6465 156.784C70.6465 157.891 71.5437 158.788 72.65 158.788Z" fill="#2626BC"/>
<path d="M72.65 166.735H127.35C128.456 166.735 129.353 165.838 129.353 164.732C129.353 163.625 128.456 162.728 127.35 162.728H72.65C71.5434 162.728 70.6465 163.625 70.6465 164.732C70.6465 165.838 71.5437 166.735 72.65 166.735Z" fill="#2626BC"/>
<path d="M31.8296 56.0728C31.33 56.0728 30.8296 55.8822 30.4487 55.5006L26.1542 51.2061C25.3913 50.4436 25.3913 49.2068 26.1542 48.4443L30.4487 44.1498C31.2108 43.3869 32.4483 43.3869 33.2104 44.1498L37.505 48.4443C38.2679 49.2068 38.2679 50.4436 37.505 51.2061L33.2108 55.5006C32.8296 55.8822 32.3296 56.0728 31.8296 56.0728V56.0728ZM30.2976 49.8252L31.83 51.3576L33.3624 49.8252L31.83 48.2928L30.2976 49.8252Z" fill="#6583FE"/>
<path d="M167.376 112.086C166.877 112.086 166.376 111.895 165.996 111.514L161.701 107.219C160.938 106.457 160.938 105.22 161.701 104.458L165.996 100.163C166.758 99.4001 167.995 99.4001 168.757 100.163L173.052 104.458C173.815 105.22 173.815 106.457 173.052 107.219L168.757 111.514C168.376 111.895 167.876 112.086 167.376 112.086V112.086ZM165.844 105.838L167.377 107.371L168.909 105.838L167.377 104.306L165.844 105.838Z" fill="#6583FE"/>
<path d="M175.595 135.728C175.096 135.728 174.595 135.537 174.214 135.156L169.92 130.861C169.157 130.099 169.157 128.862 169.92 128.1L174.214 123.805C174.976 123.042 176.214 123.042 176.976 123.805L181.271 128.1C182.033 128.862 182.033 130.099 181.271 130.861L176.976 135.156C176.595 135.537 176.095 135.728 175.595 135.728V135.728ZM174.063 129.48L175.596 131.013L177.128 129.48L175.596 127.948L174.063 129.48Z" fill="#6583FE"/>
<path d="M24.4063 122.337C23.3273 122.337 22.4531 121.463 22.4531 120.384C22.4531 119.093 21.4027 118.042 20.1113 118.042C19.0324 118.042 18.1582 117.168 18.1582 116.089C18.1582 115.01 19.0324 114.136 20.1113 114.136C21.4027 114.136 22.4531 113.086 22.4531 111.794C22.4531 110.716 23.3273 109.841 24.4063 109.841C25.4852 109.841 26.3594 110.716 26.3594 111.794C26.3594 113.086 27.4098 114.136 28.7012 114.136C29.7801 114.136 30.6543 115.01 30.6543 116.089C30.6543 117.168 29.7801 118.042 28.7012 118.042C27.4098 118.042 26.3594 119.093 26.3594 120.384C26.3594 121.463 25.4852 122.337 24.4063 122.337V122.337Z" fill="#6583FE"/>
</g>
<defs>
<linearGradient id="paint0_linear" x1="12.8336" y1="53.08" x2="203.188" y2="155.169" gradientUnits="userSpaceOnUse">
<stop stop-color="#D2DEFF" stop-opacity="0"/>
<stop offset="1" stop-color="#B7C5FF"/>
</linearGradient>
<clipPath id="clip0">
<rect width="200" height="200" fill="white"/>
</clipPath>
</defs>
</svg>
