<svg width="18" height="18" viewBox="0 0 18 18" fill="none" xmlns="http://www.w3.org/2000/svg">
<path d="M9 6.6C8.36348 6.6 7.75303 6.85286 7.30294 7.30294C6.85286 7.75303 6.6 8.36348 6.6 9C6.6 9.63652 6.85286 10.247 7.30294 10.6971C7.75303 11.1471 8.36348 11.4 9 11.4C9.63652 11.4 10.247 11.1471 10.6971 10.6971C11.1471 10.247 11.4 9.63652 11.4 9C11.4 8.36348 11.1471 7.75303 10.6971 7.30294C10.247 6.85286 9.63652 6.6 9 6.6ZM9 5C10.0609 5 11.0783 5.42143 11.8284 6.17157C12.5786 6.92172 13 7.93913 13 9C13 10.0609 12.5786 11.0783 11.8284 11.8284C11.0783 12.5786 10.0609 13 9 13C7.93913 13 6.92172 12.5786 6.17157 11.8284C5.42143 11.0783 5 10.0609 5 9C5 7.93913 5.42143 6.92172 6.17157 6.17157C6.92172 5.42143 7.93913 5 9 5V5ZM14.2 4.8C14.2 5.06522 14.0946 5.31957 13.9071 5.50711C13.7196 5.69464 13.4652 5.8 13.2 5.8C12.9348 5.8 12.6804 5.69464 12.4929 5.50711C12.3054 5.31957 12.2 5.06522 12.2 4.8C12.2 4.53478 12.3054 4.28043 12.4929 4.09289C12.6804 3.90536 12.9348 3.8 13.2 3.8C13.4652 3.8 13.7196 3.90536 13.9071 4.09289C14.0946 4.28043 14.2 4.53478 14.2 4.8V4.8ZM9 2.6C7.0208 2.6 6.6976 2.6056 5.7768 2.6464C5.1496 2.676 4.7288 2.76 4.3384 2.912C3.9912 3.0464 3.7408 3.2072 3.4744 3.4744C3.22401 3.71632 3.03148 4.01167 2.9112 4.3384C2.7592 4.7304 2.6752 5.1504 2.6464 5.7768C2.6048 6.66 2.6 6.9688 2.6 9C2.6 10.9792 2.6056 11.3024 2.6464 12.2232C2.676 12.8496 2.76 13.2712 2.9112 13.6608C3.0472 14.0088 3.2072 14.2592 3.4728 14.5248C3.7424 14.7936 3.9928 14.9544 4.3368 15.0872C4.732 15.24 5.1528 15.3248 5.7768 15.3536C6.66 15.3952 6.9688 15.4 9 15.4C10.9792 15.4 11.3024 15.3944 12.2232 15.3536C12.8488 15.324 13.2704 15.24 13.6608 15.0888C14.0072 14.9536 14.2592 14.7928 14.5248 14.5272C14.7944 14.2576 14.9552 14.0072 15.088 13.6632C15.24 13.2688 15.3248 12.8472 15.3536 12.2232C15.3952 11.34 15.4 11.0312 15.4 9C15.4 7.0208 15.3944 6.6976 15.3536 5.7768C15.324 5.1512 15.24 4.7288 15.088 4.3384C14.9674 4.012 14.7753 3.71677 14.5256 3.4744C14.2838 3.22388 13.9884 3.03133 13.6616 2.9112C13.2696 2.7592 12.8488 2.6752 12.2232 2.6464C11.34 2.6048 11.0312 2.6 9 2.6ZM9 1C11.1736 1 11.4448 1.008 12.2976 1.048C13.1496 1.088 13.7296 1.2216 14.24 1.42C14.768 1.6232 15.2128 1.8984 15.6576 2.3424C16.0644 2.74232 16.3792 3.22607 16.58 3.76C16.7776 4.2696 16.912 4.8504 16.952 5.7024C16.9896 6.5552 17 6.8264 17 9C17 11.1736 16.992 11.4448 16.952 12.2976C16.912 13.1496 16.7776 13.7296 16.58 14.24C16.3797 14.7742 16.0649 15.2581 15.6576 15.6576C15.2576 16.0643 14.7738 16.379 14.24 16.58C13.7304 16.7776 13.1496 16.912 12.2976 16.952C11.4448 16.9896 11.1736 17 9 17C6.8264 17 6.5552 16.992 5.7024 16.952C4.8504 16.912 4.2704 16.7776 3.76 16.58C3.22586 16.3796 2.74202 16.0648 2.3424 15.6576C1.93553 15.2577 1.62075 14.774 1.42 14.24C1.2216 13.7304 1.088 13.1496 1.048 12.2976C1.0104 11.4448 1 11.1736 1 9C1 6.8264 1.008 6.5552 1.048 5.7024C1.088 4.8496 1.2216 4.2704 1.42 3.76C1.62019 3.22574 1.93504 2.74186 2.3424 2.3424C2.74214 1.93538 3.22594 1.62058 3.76 1.42C4.2704 1.2216 4.8496 1.088 5.7024 1.048C6.5552 1.0104 6.8264 1 9 1Z" fill="#007AFF"/>
</svg>
