<svg width="18" height="18" viewBox="0 0 18 18" fill="none" xmlns="http://www.w3.org/2000/svg">
<path d="M14.4223 11.445L12.5173 11.2275C12.0598 11.175 11.6098 11.3325 11.2873 11.655L9.90729 13.035C7.78479 11.955 6.04479 10.2225 4.96479 8.0925L6.35229 6.705C6.67479 6.3825 6.83229 5.9325 6.77979 5.475L6.56229 3.585C6.47229 2.8275 5.83479 2.2575 5.06979 2.2575H3.77229C2.92479 2.2575 2.21979 2.9625 2.27229 3.81C2.66979 10.215 7.79229 15.33 14.1898 15.7275C15.0373 15.78 15.7423 15.075 15.7423 14.2275V12.93C15.7498 12.1725 15.1798 11.535 14.4223 11.445V11.445Z" fill="#007AFF"/>
</svg>
